<?xml version="1.0" standalone="no"?>
<!DOCTYPE svg PUBLIC "-//W3C//DTD SVG 20010904//EN"
 "http://www.w3.org/TR/2001/REC-SVG-20010904/DTD/svg10.dtd">
<svg version="1.0" xmlns="http://www.w3.org/2000/svg"
 width="2328.000000pt" height="2328.000000pt" viewBox="0 0 2328.000000 2328.000000"
 preserveAspectRatio="xMidYMid meet">
<metadata>
Created by potrace 1.14, written by Peter Selinger 2001-2017
</metadata>
<g transform="translate(0.000000,2328.000000) scale(0.100000,-0.100000)"
fill="#000000" stroke="none">
<path d="M13051 22789 c-14 -5 -83 -11 -155 -14 -72 -2 -134 -4 -138 -4 -4 -1
-14 -13 -22 -29 -8 -15 -31 -45 -51 -67 -31 -35 -42 -40 -78 -40 -34 1 -55 10
-110 50 -122 90 -189 114 -218 79 -7 -8 -38 -31 -68 -51 -31 -20 -69 -45 -86
-57 -25 -18 -43 -21 -115 -20 -47 1 -110 8 -141 16 -37 10 -62 12 -73 6 -9 -5
-71 -13 -139 -19 -67 -5 -138 -11 -157 -14 -19 -3 -102 -10 -185 -15 -84 -6
-196 -21 -255 -35 -58 -13 -123 -27 -145 -30 -54 -9 -115 -44 -115 -66 0 -21
-20 -34 -70 -44 -52 -11 -100 -35 -145 -72 -21 -19 -84 -56 -138 -83 -55 -28
-125 -67 -156 -89 -82 -56 -130 -78 -236 -112 -16 -5 -51 -28 -76 -52 -25 -23
-68 -57 -95 -76 -60 -42 -145 -116 -229 -198 -45 -44 -74 -64 -100 -69 -45 -8
-56 -29 -48 -91 6 -56 19 -40 -157 -184 -80 -66 -96 -84 -80 -94 25 -16 -1
-77 -109 -251 -79 -128 -116 -226 -108 -285 4 -28 -3 -66 -24 -128 -56 -173
-61 -204 -65 -426 -2 -115 -11 -271 -20 -345 -26 -208 -27 -244 -11 -312 9
-35 18 -90 22 -123 3 -33 14 -127 25 -210 11 -82 26 -244 35 -360 29 -386 75
-649 145 -832 35 -89 37 -108 13 -122 -15 -8 -11 -16 31 -65 26 -31 57 -61 69
-67 12 -7 36 -27 53 -45 31 -33 37 -54 50 -174 3 -25 10 -49 15 -54 14 -15 11
-53 -6 -60 -9 -3 -15 0 -15 9 0 8 -11 25 -24 36 -14 12 -30 34 -36 50 -7 16
-16 29 -21 29 -5 0 -9 8 -9 18 -1 21 -46 56 -64 49 -16 -6 -116 38 -116 51 0
4 -15 16 -32 26 -18 9 -45 24 -61 32 -34 19 -67 25 -89 18 -29 -9 -40 -80 -41
-257 0 -147 2 -169 17 -180 14 -10 19 -38 26 -139 5 -69 12 -138 16 -154 10
-38 74 -145 84 -139 11 7 11 141 0 189 -12 53 -2 106 20 106 18 0 40 73 40
132 0 53 23 110 57 143 18 18 33 37 33 44 0 6 7 11 15 11 8 0 15 -9 15 -19 0
-11 9 -21 23 -25 12 -3 32 -14 44 -26 12 -11 26 -20 31 -20 6 0 12 -9 15 -21
3 -11 14 -23 25 -26 11 -3 23 -14 26 -26 7 -28 -4 -109 -18 -126 -21 -26 -33
-265 -15 -287 6 -8 8 -39 4 -81 -14 -153 -12 -447 4 -558 20 -145 17 -252 -9
-311 -12 -25 -27 -48 -35 -51 -8 -3 -15 -11 -15 -19 0 -8 -4 -14 -9 -14 -12 0
-41 -29 -41 -41 0 -17 63 -9 114 15 28 13 60 25 71 26 49 5 52 2 58 -65 4 -40
16 -82 32 -112 14 -26 25 -57 25 -69 0 -12 15 -64 34 -115 19 -52 55 -157 80
-234 25 -77 68 -201 96 -275 29 -74 56 -157 60 -185 5 -27 22 -111 39 -185 16
-74 32 -166 36 -205 4 -38 15 -90 25 -115 16 -42 34 -198 31 -282 0 -20 4 -40
9 -43 6 -4 10 6 10 21 0 15 3 25 6 21 3 -3 8 -72 10 -154 5 -172 12 -236 25
-228 5 4 9 1 9 -5 0 -7 7 -6 21 3 11 8 29 13 40 10 22 -6 26 -23 5 -23 -26 0
-63 -63 -67 -113 -2 -26 -1 -47 2 -47 7 0 39 -62 39 -74 0 -3 -7 -6 -15 -6 -9
0 -15 9 -16 23 0 16 -4 12 -16 -18 -12 -32 -16 -88 -16 -280 l-1 -240 -9 175
c-6 112 -6 211 1 275 8 83 7 105 -5 129 -11 20 -14 50 -11 98 2 37 1 68 -3 68
-4 0 -29 -28 -56 -62 -107 -138 -194 -196 -278 -185 -23 4 -60 1 -81 -4 -65
-18 -193 -112 -291 -212 -64 -66 -104 -99 -130 -107 -21 -7 -93 -37 -161 -67
-108 -48 -135 -56 -215 -63 -101 -9 -192 -32 -246 -63 -180 -101 -338 -152
-576 -187 -44 -6 -118 -23 -165 -37 -153 -45 -184 -52 -241 -59 -49 -5 -62 -3
-119 26 -59 30 -70 32 -140 28 -67 -4 -90 -12 -219 -73 -135 -63 -151 -68
-240 -76 -53 -4 -112 -13 -131 -19 -19 -6 -75 -18 -125 -25 -49 -8 -112 -19
-140 -24 -27 -5 -81 -14 -120 -20 -100 -15 -180 -43 -344 -122 -79 -38 -148
-69 -153 -69 -5 0 -43 -16 -85 -37 -55 -25 -100 -57 -153 -108 -42 -40 -116
-98 -165 -129 -50 -32 -117 -84 -150 -116 -33 -32 -86 -76 -118 -99 -33 -22
-89 -68 -126 -103 -37 -35 -97 -81 -134 -102 -36 -21 -69 -46 -72 -55 -4 -9
-22 -65 -41 -126 -19 -60 -66 -171 -103 -245 -37 -74 -71 -146 -76 -160 -4
-14 -75 -162 -157 -330 -171 -346 -202 -415 -292 -642 -35 -90 -84 -206 -109
-258 -24 -52 -57 -124 -71 -160 -33 -80 -33 -80 -94 -215 -65 -143 -149 -334
-201 -458 -23 -54 -57 -131 -75 -170 -69 -149 -116 -254 -116 -261 0 -23 -108
-266 -248 -556 -54 -114 -151 -326 -197 -431 -18 -42 -44 -101 -58 -130 -13
-30 -27 -65 -31 -79 -13 -44 -76 -203 -102 -258 -19 -39 -23 -56 -15 -66 8
-10 6 -18 -10 -32 -12 -10 -30 -39 -41 -64 -11 -25 -37 -83 -58 -130 -21 -47
-55 -139 -75 -205 -21 -66 -78 -228 -127 -360 -49 -132 -117 -314 -151 -405
-33 -91 -84 -226 -113 -300 -29 -74 -57 -153 -63 -175 -6 -22 -24 -62 -39 -90
-55 -96 -62 -111 -107 -220 -26 -60 -64 -137 -86 -171 -21 -33 -39 -70 -39
-82 0 -11 -9 -36 -20 -55 -11 -18 -23 -61 -26 -93 l-6 -60 77 -70 c121 -109
289 -218 540 -349 61 -32 155 -85 210 -117 123 -73 132 -78 144 -78 5 0 11 33
14 73 8 114 36 306 55 377 17 64 18 65 62 78 25 7 59 17 75 22 54 17 217 33
360 37 77 1 201 5 275 8 80 3 217 -1 335 -10 110 -8 232 -17 270 -20 39 -2
104 -11 145 -19 41 -8 98 -20 125 -25 95 -19 220 -52 338 -89 99 -31 125 -44
164 -79 25 -24 60 -48 78 -54 19 -7 33 -19 33 -28 0 -9 3 -26 7 -39 5 -14 3
-22 -4 -22 -6 0 -11 -7 -11 -15 0 -8 -4 -15 -8 -15 -5 0 -14 -18 -21 -40 -13
-45 -18 -48 -37 -22 -12 15 -14 14 -12 -13 3 -59 -2 -85 -17 -85 -19 0 -19
-21 0 -46 8 -10 15 -30 15 -44 1 -43 32 -70 82 -70 43 -1 78 -18 78 -38 0 -6
18 -13 40 -17 22 -4 40 -11 40 -16 0 -5 7 -9 15 -9 8 0 25 -9 38 -20 32 -28
100 -61 106 -52 4 4 17 8 31 9 122 12 145 11 175 -2 25 -10 35 -11 39 -2 3 9
7 9 13 1 4 -7 37 -19 73 -28 36 -9 66 -21 68 -26 2 -6 10 -10 17 -10 35 0 65
-24 65 -52 0 -15 5 -28 12 -28 6 0 19 -6 27 -13 26 -22 131 -46 199 -46 75 1
162 -20 162 -38 0 -9 14 -13 40 -13 22 0 40 -4 40 -9 0 -5 20 -14 44 -20 49
-12 66 -28 45 -42 -10 -6 -3 -9 21 -9 36 -1 75 -31 99 -77 6 -13 18 -23 26
-23 33 0 85 -34 85 -55 0 -24 40 -48 64 -39 8 3 17 1 21 -5 3 -6 16 -11 29
-11 33 0 69 -35 73 -71 2 -18 13 -39 28 -51 14 -11 25 -25 25 -32 0 -7 12 -17
28 -23 l27 -11 -27 -1 c-26 -1 -28 -4 -28 -41 0 -39 1 -40 38 -41 20 -1 42 -1
49 0 7 1 21 -16 32 -37 11 -21 39 -57 62 -80 40 -39 43 -44 33 -71 -6 -15 -9
-52 -6 -80 4 -48 3 -51 -18 -51 -12 0 -34 -8 -48 -18 -15 -10 -35 -22 -44 -25
-28 -10 -23 -65 8 -93 21 -20 35 -24 93 -24 l68 0 13 40 c13 40 14 40 63 40
43 0 55 -5 98 -41 27 -22 70 -51 97 -64 26 -13 54 -30 61 -39 7 -9 20 -16 27
-16 8 0 14 -6 14 -13 0 -12 37 -36 50 -33 10 2 110 -106 110 -119 0 -7 5 -15
11 -17 6 -2 21 -21 33 -42 16 -29 32 -42 65 -53 24 -8 51 -21 58 -29 8 -8 23
-14 33 -14 10 0 20 -5 22 -11 2 -7 53 -12 144 -14 165 -4 198 -10 191 -35 -2
-10 -1 -24 3 -31 9 -13 17 -15 83 -25 49 -6 144 -41 177 -64 32 -23 46 -25 93
-16 51 11 127 -1 127 -20 0 -8 5 -12 10 -9 5 3 10 1 10 -4 0 -6 12 -11 26 -11
14 0 33 -4 42 -9 9 -4 29 -11 45 -15 23 -5 27 -3 27 14 0 11 7 20 16 20 8 0
12 -5 9 -11 -8 -12 23 -49 42 -49 7 0 13 -7 13 -15 0 -8 9 -15 20 -15 17 0 20
-7 20 -44 0 -40 -2 -44 -20 -41 -11 2 -18 0 -15 -6 4 -5 14 -9 24 -9 26 0 52
-23 54 -48 1 -18 7 -22 38 -22 46 0 118 53 118 88 1 23 15 30 26 12 3 -6 17
-10 31 -10 16 0 24 -6 24 -18 0 -10 4 -22 9 -27 14 -15 34 -86 36 -125 1 -19
5 -43 9 -52 7 -15 3 -18 -23 -18 -25 0 -31 -4 -31 -21 0 -20 4 -21 50 -17 42
4 53 2 70 -17 18 -19 19 -23 6 -28 -9 -4 -16 -15 -16 -26 0 -22 41 -45 98 -55
19 -3 52 -20 73 -37 36 -29 39 -29 39 -10 0 12 4 21 9 21 5 0 17 7 25 16 10 9
40 17 74 20 38 3 51 1 37 -5 -13 -5 4 -7 48 -3 43 3 67 1 67 -6 0 -5 14 -15
30 -21 24 -8 30 -7 30 5 0 10 13 14 43 15 32 2 35 3 12 6 -51 6 -85 25 -99 52
-14 25 -13 26 32 47 78 35 107 38 140 14 24 -18 29 -29 31 -73 1 -28 4 -53 6
-55 2 -2 12 1 23 7 12 6 48 11 81 11 87 0 139 -34 132 -87 -1 -7 7 -13 18 -13
11 0 22 -8 25 -18 3 -10 26 -37 50 -61 l44 -43 30 31 c33 35 44 38 62 16 7 -8
28 -19 48 -25 29 -8 38 -7 45 5 4 8 15 15 22 15 8 0 15 5 15 11 0 18 50 1 86
-29 36 -30 42 -42 20 -42 -21 0 -66 -44 -66 -64 0 -9 -4 -16 -10 -16 -13 0
-13 -47 0 -55 6 -4 9 -14 8 -23 -2 -13 6 -18 40 -20 33 -3 42 0 42 13 0 9 16
23 36 31 33 14 38 14 54 -1 17 -15 36 -91 32 -126 -1 -9 7 -24 17 -33 17 -16
20 -16 36 0 11 11 14 25 10 42 -8 34 25 169 46 188 12 11 27 14 44 10 13 -3
28 -6 31 -5 4 0 10 -3 13 -9 3 -5 23 -12 44 -15 28 -4 37 -2 37 9 0 16 75 21
84 5 3 -5 23 -11 43 -14 21 -2 58 -12 82 -21 26 -10 90 -19 157 -23 63 -3 114
-9 114 -13 0 -4 25 -10 55 -13 48 -5 59 -3 80 17 14 13 25 31 25 40 0 12 10
16 40 16 31 0 40 4 40 17 0 14 2 15 13 4 10 -11 10 -14 0 -18 -7 -3 -13 -13
-13 -22 0 -20 77 -56 82 -39 2 6 22 3 48 -6 25 -9 58 -16 73 -16 20 0 30 -6
34 -19 6 -24 83 -57 83 -35 0 8 6 14 14 14 8 0 18 9 21 20 3 11 15 20 26 20
10 0 19 7 19 15 0 12 15 15 76 15 90 0 126 -19 145 -78 7 -20 14 -31 16 -24 6
15 75 16 90 1 8 -8 43 -7 125 1 101 11 119 10 146 -4 17 -9 35 -22 39 -30 5
-8 45 -20 97 -29 56 -10 115 -29 161 -51 57 -28 80 -34 109 -29 34 5 42 17 38
54 -1 4 6 5 16 3 9 -2 51 -8 92 -13 72 -9 155 -25 193 -37 9 -3 17 -14 17 -25
0 -16 7 -19 43 -18 23 1 32 4 20 6 -19 4 -23 11 -23 44 0 38 1 39 38 39 27 0
33 3 22 10 -20 12 -9 21 38 27 44 6 60 -7 37 -30 -23 -23 -19 -32 21 -46 31
-11 38 -11 54 4 18 16 20 16 44 -2 14 -10 26 -23 26 -30 0 -7 16 -29 36 -48
l36 -36 -23 -25 c-12 -13 -28 -24 -34 -24 -7 0 -20 -9 -30 -20 -16 -18 -16
-20 -2 -20 10 0 17 -6 17 -14 0 -17 63 -66 87 -67 10 0 13 -3 6 -6 -24 -9 -13
-31 21 -43 27 -9 42 -8 77 7 24 9 50 23 57 30 17 16 75 17 117 2 20 -8 43 -9
61 -3 l29 8 -32 4 c-29 3 -31 6 -35 50 -2 26 0 49 4 50 4 2 8 12 8 22 0 15 12
19 76 25 53 5 79 3 84 -4 7 -13 40 -4 40 10 0 5 6 9 14 9 7 0 19 7 26 15 16
19 57 19 94 0 15 -8 37 -15 47 -15 11 0 19 -7 19 -15 0 -11 12 -15 43 -16 64
-3 111 2 123 12 5 4 46 11 90 15 68 6 85 4 108 -11 28 -19 146 -51 231 -64
159 -24 277 -52 293 -67 9 -10 39 -14 92 -14 58 0 88 -5 112 -18 50 -28 139
-62 159 -62 10 0 23 -8 28 -17 6 -10 11 -14 11 -10 0 5 15 -4 33 -19 31 -26
32 -26 35 -6 4 28 78 45 168 38 67 -6 69 -5 81 21 7 14 10 29 8 33 -3 4 17 15
43 25 26 10 56 26 67 36 30 27 112 68 121 61 4 -4 4 -2 1 4 -8 14 14 24 54 24
23 0 27 -3 22 -17 -11 -29 -156 -165 -306 -286 l-58 -47 1071 0 1070 0 0 53
c-1 88 -19 300 -27 308 -5 4 -42 1 -83 -6 -173 -30 -601 -68 -562 -49 6 3 12
11 12 18 0 14 144 51 159 41 6 -3 20 4 31 15 15 15 30 20 53 17 18 -2 24 -2
15 0 -32 8 -19 30 25 42 28 8 51 9 67 3 39 -15 160 0 172 21 7 14 26 17 113
17 83 0 103 -3 99 -13 -3 -8 2 -20 10 -27 13 -10 27 -9 77 6 45 14 56 20 42
25 -17 7 -17 8 0 8 23 1 22 18 -3 26 -11 3 -20 10 -20 15 0 13 33 22 40 10 4
-6 38 -13 76 -16 38 -3 74 -7 81 -9 7 -2 10 2 7 9 -4 9 8 15 37 20 43 7 88 26
111 49 18 17 99 48 109 41 15 -9 199 -11 193 -2 -3 4 2 8 10 8 9 0 16 -4 16
-8 0 -4 16 -6 35 -4 19 2 33 7 30 11 -2 4 25 13 61 20 36 6 73 16 82 21 19 11
235 70 256 70 7 0 19 7 26 15 7 8 25 15 41 15 29 0 40 15 17 23 -7 2 21 2 63
1 67 -3 83 0 138 26 35 17 71 30 81 30 10 0 21 4 24 9 4 5 32 17 64 26 31 9
69 23 84 31 14 8 40 14 56 14 44 0 67 10 50 22 -9 7 -8 8 6 4 10 -4 24 -2 30
2 14 11 87 29 149 37 45 6 153 42 194 64 49 26 266 89 328 95 79 7 169 26 235
50 25 9 51 19 58 21 10 4 8 10 -7 26 -17 18 -26 20 -74 14 -33 -4 -58 -13 -61
-21 -3 -8 -15 -14 -27 -14 -17 0 -20 -5 -16 -21 5 -19 3 -20 -36 -14 -22 4
-47 13 -54 20 -7 7 -26 19 -43 27 -16 7 -30 17 -30 23 0 5 -17 21 -38 35 -20
14 -39 28 -42 31 -14 17 -74 15 -162 -7 -106 -26 -153 -24 -161 8 -3 11 -14
22 -25 25 -14 3 -18 11 -14 29 7 39 -5 68 -35 81 -43 18 -77 27 -89 25 -6 -1
-17 5 -24 13 -7 9 -29 15 -52 15 l-40 0 2 42 c3 63 2 66 -20 73 -18 6 -21 14
-18 58 2 29 5 50 8 48 3 -2 14 1 25 7 12 6 50 11 85 13 73 2 92 7 85 20 -7 11
58 22 84 14 12 -3 19 -11 16 -16 -4 -5 -1 -9 4 -9 6 0 11 -9 11 -19 0 -31 60
-47 99 -27 16 9 37 16 46 16 11 0 15 11 15 48 0 42 -3 50 -30 65 -33 20 -32
29 13 80 18 20 34 27 61 27 20 0 36 -5 36 -11 0 -6 16 -9 38 -7 32 3 37 7 40
31 3 22 -1 27 -17 27 -18 0 -21 6 -21 40 0 24 -5 40 -12 40 -13 0 -68 59 -68
72 0 16 -54 4 -85 -18 -17 -12 -40 -25 -52 -28 -13 -4 -23 -12 -23 -17 0 -5
-25 -9 -55 -9 -40 0 -56 4 -63 16 -7 13 -19 16 -57 12 -30 -4 -60 -1 -82 9
-39 16 -97 4 -107 -22 -3 -8 -10 -15 -16 -15 -5 0 -20 -10 -33 -22 l-22 -23
-3 23 c-3 18 -10 22 -38 22 -27 0 -36 5 -43 23 -11 29 -94 114 -128 132 -14 8
-51 13 -82 12 -44 -2 -61 -7 -80 -26 -22 -22 -25 -23 -30 -7 -6 14 -12 12 -44
-18 -22 -20 -37 -28 -37 -20 0 9 -11 14 -33 14 -17 0 -47 4 -66 10 -18 5 -92
10 -165 11 -72 1 -134 6 -137 11 -3 5 -28 -12 -55 -39 -27 -26 -62 -58 -78
-70 -41 -32 -98 -30 -141 2 -24 19 -34 22 -38 13 -3 -7 -6 4 -6 26 -1 28 -8
45 -26 62 -21 20 -32 22 -80 17 -37 -4 -55 -10 -55 -19 0 -8 -3 -14 -8 -14 -4
0 -20 -12 -35 -26 -18 -17 -32 -23 -38 -17 -16 16 -183 4 -193 -14 -4 -8 -17
-24 -27 -34 -11 -11 -19 -23 -19 -29 0 -5 -18 -10 -39 -10 -36 0 -40 -3 -43
-27 l-3 -28 -24 27 c-14 16 -30 28 -36 28 -15 0 -55 43 -55 58 0 7 9 12 20 12
16 0 20 7 20 33 0 27 6 37 28 47 l27 14 -27 4 c-16 2 -28 10 -28 18 0 10 -12
14 -40 14 -22 0 -40 -4 -40 -10 0 -5 -16 -17 -36 -26 -20 -10 -39 -26 -41 -35
-4 -13 -22 -21 -62 -29 -31 -6 -64 -15 -73 -20 -24 -13 -28 -13 -28 4 0 8 -18
29 -40 46 -37 29 -40 30 -40 11 0 -18 -6 -21 -40 -21 -29 0 -40 -4 -40 -15 0
-9 -9 -15 -22 -15 -13 0 -42 -18 -66 -40 -38 -36 -48 -40 -93 -40 -42 0 -51 3
-58 22 l-8 22 -12 -22 c-9 -17 -21 -22 -51 -22 -21 0 -42 5 -45 11 -4 5 -7 41
-6 78 l0 69 -31 6 c-61 12 -88 8 -88 -14 0 -22 -46 -69 -67 -70 -7 0 -13 -7
-13 -16 0 -9 -11 -25 -25 -35 -14 -11 -22 -26 -19 -34 4 -9 -4 -19 -23 -27
-36 -15 -73 -48 -73 -64 0 -7 -5 -14 -11 -16 -6 -2 -11 -20 -11 -41 0 -37 0
-37 -43 -37 -48 0 -75 8 -75 21 0 5 9 9 21 9 23 0 23 0 -6 47 -11 18 -27 33
-35 33 -9 0 -27 18 -40 40 -28 44 -35 47 -97 41 -28 -2 -43 -8 -43 -17 0 -10
-12 -14 -41 -14 -44 0 -83 16 -74 30 3 5 -4 14 -16 21 -18 9 -24 8 -31 -5 -7
-12 -25 -16 -83 -16 -60 0 -75 -3 -75 -15 0 -11 -11 -15 -41 -15 -43 0 -83 16
-75 29 3 5 -4 17 -15 27 -16 15 -22 16 -29 5 -6 -11 -16 -7 -44 15 -28 22 -32
30 -20 34 15 5 15 7 0 19 -9 7 -16 22 -16 33 0 22 -19 14 -63 -27 -20 -19 -36
-25 -60 -23 -32 3 -32 4 -35 60 -2 43 -9 62 -27 82 -13 14 -27 42 -31 61 -3
19 -10 35 -15 35 -5 0 -9 25 -9 55 0 46 -3 55 -17 55 -10 0 -28 3 -40 6 -17 5
-23 2 -23 -9 0 -10 -6 -13 -20 -10 -25 7 -25 -5 0 -37 21 -27 26 -60 10 -60
-5 0 -19 -18 -30 -40 -11 -22 -17 -40 -13 -39 27 4 31 -3 26 -39 -3 -20 -9
-39 -12 -42 -4 -3 -13 -18 -20 -35 -8 -17 -16 -24 -18 -17 -3 7 -22 12 -44 12
-32 0 -39 3 -39 20 0 11 7 20 15 20 10 0 15 10 15 28 0 15 3 51 6 80 6 48 5
52 -14 52 -11 0 -22 -3 -24 -7 -2 -5 -20 -21 -40 -36 -31 -23 -38 -34 -38 -63
0 -41 1 -41 -63 5 -28 21 -52 48 -59 68 -9 25 -18 33 -38 33 -25 1 -73 35 -81
59 -7 19 -98 -58 -120 -101 -11 -21 -25 -38 -32 -38 -6 0 8 -18 33 -40 34 -30
40 -39 26 -40 -16 0 -18 -6 -14 -51 4 -37 1 -60 -11 -80 -14 -25 -22 -29 -64
-29 -36 0 -49 4 -54 17 -9 25 -51 63 -69 63 -7 0 -14 7 -14 15 0 9 -7 27 -16
40 -15 23 -15 25 0 25 23 0 20 37 -4 50 -31 16 -24 30 15 30 37 0 44 10 20 30
-9 7 -15 29 -15 51 0 22 -4 39 -9 39 -5 0 -12 10 -15 22 -6 22 -7 22 -17 4 -6
-10 -13 -46 -16 -79 -2 -34 -6 -63 -8 -66 -5 -5 -65 60 -65 72 0 4 -7 7 -15 7
-9 0 -15 10 -15 26 0 32 -23 55 -52 53 -62 -5 -108 1 -108 16 0 8 -6 15 -14
15 -8 0 -28 11 -44 25 -17 14 -34 25 -39 25 -5 0 -16 11 -23 25 -7 14 -24 32
-38 41 -13 9 -22 11 -18 6 4 -6 -3 -16 -16 -23 -12 -6 -31 -20 -42 -31 -15
-14 -33 -18 -63 -17 -33 2 -46 -2 -58 -16 -13 -18 -14 -18 -9 -2 4 11 -2 30
-15 47 -11 16 -21 34 -21 40 0 5 -5 10 -11 10 -6 0 -22 9 -37 20 -25 20 -88
25 -98 8 -3 -4 -7 -31 -9 -59 -4 -65 -24 -88 -77 -87 -41 0 -63 22 -38 38 9 5
9 13 2 27 -8 15 -23 19 -71 21 -56 2 -61 1 -61 -18 0 -11 -7 -23 -15 -26 -8
-3 -20 -24 -26 -45 -16 -51 -33 -50 -129 1 -64 33 -71 40 -46 40 36 0 26 13
-12 16 -15 1 -46 9 -69 18 -49 17 -103 4 -103 -26 0 -15 -8 -18 -42 -17 -24 1
-33 4 -20 6 27 5 28 19 3 33 -11 5 -21 22 -23 37 -2 23 -11 31 -44 42 -38 13
-44 13 -87 -8 -38 -18 -51 -32 -69 -72 -13 -27 -26 -49 -30 -49 -5 0 -8 -12
-8 -26 0 -17 -6 -28 -20 -31 -16 -4 -20 -14 -20 -44 0 -48 -25 -53 -55 -13
-15 21 -19 39 -17 78 3 42 -1 58 -22 89 -14 21 -26 42 -26 48 0 6 -4 8 -9 5
-5 -3 -24 0 -42 8 -36 15 -153 28 -175 19 -8 -3 -14 -10 -14 -15 0 -14 -52
-58 -67 -58 -7 0 -13 -4 -13 -10 0 -5 -9 -10 -20 -10 -10 0 -24 -9 -31 -21 -8
-15 -14 -18 -22 -10 -6 6 -26 11 -44 11 -19 0 -36 6 -41 16 -10 18 -28 19
-159 16 -69 -2 -83 -5 -83 -18 0 -13 -8 -15 -42 -10 -82 10 -118 18 -118 26 0
4 -19 13 -42 19 -36 10 -51 9 -87 -3 -24 -9 -65 -16 -92 -16 -26 0 -59 -4 -73
-10 -23 -8 -26 -15 -26 -55 l0 -45 -40 0 c-35 0 -40 3 -40 23 0 12 -4 29 -10
37 -6 9 -5 17 1 21 15 9 -32 78 -53 79 -10 0 -18 6 -18 13 0 7 -23 18 -53 25
-65 15 -107 15 -107 1 0 -6 -10 -9 -22 -7 -22 3 -23 8 -25 92 -2 112 -4 117
-48 114 -43 -3 -64 21 -65 72 0 37 -15 64 -62 115 -15 17 -28 33 -28 37 0 25
-37 88 -52 88 -9 0 -23 3 -32 6 -12 5 -16 -1 -16 -24 0 -17 5 -43 11 -59 21
-54 40 -226 34 -308 -16 -215 -44 -338 -87 -375 -15 -14 -40 -54 -54 -90 -23
-60 -76 -257 -105 -393 -7 -32 -17 -65 -24 -73 -13 -18 -73 -30 -125 -26 -33
3 -36 7 -64 73 -15 39 -34 73 -40 75 -7 3 -64 -19 -127 -49 -145 -68 -184 -78
-324 -78 -182 0 -265 22 -382 102 -43 30 -66 38 -45 17 16 -16 15 -21 -8 -48
-11 -13 -20 -34 -20 -48 0 -30 -10 -27 -102 34 -49 33 -80 63 -109 107 -55 83
-79 132 -79 162 0 32 14 32 57 -1 44 -33 42 -17 -3 27 -20 18 -47 53 -61 77
-26 43 -47 53 -57 27 -8 -21 -74 -48 -100 -41 -21 6 -66 88 -66 121 0 21 54
75 75 75 11 0 15 6 11 18 -35 123 -50 365 -34 538 11 114 8 128 -19 84 -19
-31 -21 -48 -19 -160 2 -147 -17 -227 -53 -223 -12 2 -21 -2 -21 -7 0 -6 -4
-10 -10 -10 -5 0 -10 8 -10 18 0 14 -9 17 -51 16 -61 -1 -79 -18 -79 -76 0
-31 4 -38 20 -38 15 0 20 7 20 26 0 20 4 25 16 20 9 -3 27 -9 40 -12 26 -7 33
-34 9 -34 -8 0 -15 -6 -15 -14 0 -16 -14 -21 -82 -31 -27 -3 -48 -10 -48 -16
0 -5 -19 -9 -42 -9 -34 0 -51 7 -83 35 -36 31 -38 34 -17 35 25 0 30 15 7 24
-8 3 -20 17 -25 31 -7 18 -18 25 -37 26 -16 1 -35 2 -44 3 -9 1 -23 7 -33 15
-9 8 -32 15 -52 17 -42 3 -74 28 -74 59 0 36 -89 66 -188 64 -74 -1 -82 0
-109 25 -15 14 -36 29 -45 32 -10 3 -18 10 -18 15 0 5 -19 9 -42 9 -39 1 -44
4 -59 35 l-17 35 37 39 c20 21 37 51 39 65 2 27 88 123 105 118 5 -1 6 1 3 6
-5 9 45 52 61 52 14 1 73 59 73 73 0 17 53 77 68 77 7 0 12 5 12 10 0 6 21 10
48 10 45 1 101 27 76 37 -7 2 -10 12 -7 23 8 30 -63 34 -233 15 -105 -12 -174
-15 -234 -10 -47 4 -204 8 -349 9 l-264 1 -41 42 c-23 23 -58 61 -79 85 -26
30 -51 48 -77 55 -22 5 -40 6 -40 2 0 -16 -19 -9 -42 15 -13 14 -35 30 -50 35
-16 6 -28 18 -28 26 0 9 -9 34 -20 56 -12 22 -19 43 -16 47 3 5 1 25 -4 45 -5
26 -4 37 4 37 18 1 78 59 71 70 -3 6 -26 10 -51 10 -47 0 -54 11 -29 44 8 11
28 19 47 20 46 1 64 20 49 52 -6 14 -11 33 -11 43 0 10 -6 24 -14 30 -8 7 -18
26 -21 42 -4 16 -10 29 -14 29 -4 0 -16 6 -26 14 -18 13 -17 16 15 67 18 30
43 65 55 79 31 36 35 54 19 85 -18 34 -19 132 -1 138 6 2 4 3 -6 1 -16 -2 -18
2 -12 24 4 15 12 34 19 42 7 8 19 31 26 50 18 48 88 157 106 164 8 3 14 11 14
18 0 27 200 140 340 191 50 18 90 21 440 27 353 7 507 3 648 -16 28 -3 52 -10
52 -15 0 -4 18 -7 41 -7 22 0 46 -5 52 -12 9 -10 9 -11 0 -6 -6 3 -14 2 -17
-3 -7 -11 21 -17 119 -26 l70 -7 -24 -19 -23 -19 27 -12 c21 -9 28 -9 35 1 6
10 12 11 26 2 18 -10 18 -11 -4 -17 -35 -10 -7 -24 46 -24 25 0 41 -4 37 -10
-8 -12 60 -46 110 -55 22 -4 53 -15 68 -24 25 -14 29 -14 37 -1 7 10 10 11 10
3 0 -7 11 -13 24 -13 14 0 31 -6 38 -13 7 -7 30 -14 51 -16 28 -2 37 1 37 13
0 12 5 14 23 7 12 -4 63 -13 112 -20 50 -7 106 -18 125 -25 44 -15 73 -10 66
12 -6 20 20 51 87 105 25 21 53 45 61 53 36 36 228 191 291 235 105 74 108 76
247 187 117 92 206 156 263 187 68 38 245 173 245 188 0 5 21 35 47 65 63 73
144 112 231 109 55 -1 63 2 103 34 45 36 118 87 338 237 155 106 250 195 296
277 28 51 38 84 50 167 8 57 15 121 15 144 0 22 9 73 19 113 21 81 60 132 119
158 31 13 36 12 68 -7 42 -27 53 -47 74 -135 19 -77 33 -88 77 -60 l26 18 -23
17 -23 17 26 18 c24 15 27 24 27 74 0 82 5 85 86 75 l69 -9 0 -32 c1 -59 39
-68 66 -15 20 38 46 58 107 81 30 12 65 30 79 41 14 11 33 20 42 20 9 0 27 9
41 20 14 11 28 20 31 20 4 0 51 25 105 56 55 31 151 82 216 115 77 39 123 68
138 89 12 16 30 30 42 30 28 0 83 27 148 72 36 25 71 39 100 43 28 3 103 34
196 80 84 41 159 75 167 75 8 0 48 15 89 34 78 37 116 52 243 96 44 16 76 29
70 30 -5 1 -46 3 -90 6 -154 8 -242 67 -272 182 -22 84 -14 149 27 205 42 59
97 86 187 94 94 8 167 -9 218 -52 50 -41 76 -92 54 -106 -24 -16 -131 -4 -174
19 -43 24 -76 28 -104 12 -21 -10 -53 -82 -47 -102 3 -7 7 -26 10 -41 7 -30
57 -67 91 -67 11 0 40 14 65 31 38 26 50 29 85 23 53 -8 89 -26 93 -45 1 -9
-13 -39 -32 -67 -20 -28 -32 -53 -28 -55 4 -3 28 2 54 10 26 9 55 12 65 9 16
-7 16 -9 -7 -26 -14 -11 -29 -20 -34 -20 -28 0 -495 -215 -576 -265 -19 -12
-60 -31 -90 -44 -145 -60 -576 -289 -591 -313 -4 -7 -1 -21 7 -32 8 -12 14
-45 14 -83 0 -60 1 -63 28 -69 66 -14 63 -12 60 -71 l-3 -56 -40 -11 -40 -12
-3 -92 c-2 -69 1 -93 10 -96 74 -20 73 -19 76 -72 3 -46 1 -51 -23 -62 -31
-14 -153 -16 -188 -3 -37 14 -57 85 -57 200 0 90 -1 96 -26 116 -47 37 -52
134 -8 153 13 7 26 23 29 39 4 15 11 36 16 46 9 16 7 18 -13 12 -40 -12 -182
-82 -203 -99 -15 -13 -17 -19 -7 -23 29 -12 82 -75 82 -98 0 -22 -5 -24 -66
-30 -57 -7 -73 -4 -114 15 -80 38 -134 8 -72 -40 21 -17 36 -21 67 -17 105 14
198 -42 210 -128 9 -59 -7 -96 -55 -130 -101 -70 -268 -73 -361 -7 -39 28 -47
43 -41 77 3 18 11 20 84 19 63 -1 83 -5 90 -18 6 -11 23 -16 52 -16 47 0 70
17 60 44 -10 26 -41 37 -121 43 -69 6 -79 9 -120 45 -47 40 -73 47 -92 24 -15
-18 -32 -164 -24 -211 4 -26 2 -40 -8 -46 -16 -10 -83 -12 -118 -2 -21 5 -23
10 -18 53 8 67 -1 76 -56 61 -47 -14 -57 -28 -57 -82 0 -30 -15 -39 -66 -39
-54 0 -96 -23 -148 -81 -47 -52 -61 -72 -155 -220 -23 -36 -58 -83 -79 -103
-37 -38 -189 -142 -335 -231 -80 -49 -126 -88 -186 -159 -28 -33 -32 -43 -26
-76 5 -30 -1 -52 -30 -113 -19 -42 -46 -84 -59 -92 -38 -25 -117 -30 -172 -11
-95 32 -114 25 -350 -115 -73 -44 -183 -120 -246 -171 -62 -50 -138 -108 -169
-128 -155 -100 -357 -265 -365 -297 -4 -12 -10 -23 -16 -23 -5 0 -6 -4 -3 -10
3 -5 15 -10 26 -10 11 0 18 -4 15 -8 -3 -5 17 -7 44 -4 53 5 80 -8 80 -37 0
-9 -9 -22 -20 -29 -34 -21 -25 -42 18 -42 52 0 66 16 38 44 l-21 21 60 6 c33
4 89 14 125 24 52 14 107 18 270 19 191 1 208 -1 251 -21 26 -12 50 -26 53
-31 3 -6 -7 -21 -23 -34 -61 -50 -102 -124 -162 -301 -32 -94 -59 -179 -59
-188 0 -8 -11 -38 -25 -64 -13 -27 -27 -61 -30 -77 -4 -15 -16 -39 -27 -54
-12 -15 -23 -41 -25 -58 -1 -17 -5 -46 -8 -64 -5 -28 -3 -33 22 -43 33 -13
112 -4 130 14 12 11 21 69 42 262 20 177 92 382 162 463 16 18 29 36 29 41 0
35 168 44 558 28 108 -4 159 -10 170 -19 10 -8 29 -19 45 -26 15 -6 27 -16 27
-21 0 -14 66 -31 118 -31 46 0 61 25 20 33 -21 3 -20 5 10 18 18 9 29 18 25
22 -10 11 26 8 46 -3 10 -5 52 -14 92 -20 41 -6 92 -17 114 -25 22 -7 63 -16
90 -20 72 -9 96 -16 90 -25 -3 -5 1 -11 7 -13 7 -3 -8 -6 -34 -6 -57 -1 -69
-16 -36 -46 20 -18 39 -23 101 -27 42 -2 77 0 77 3 0 10 122 -2 145 -14 27
-15 125 -27 283 -33 72 -3 132 -10 132 -15 0 -5 13 -9 30 -9 40 0 125 -18 185
-40 112 -40 505 -43 505 -4 0 8 -8 14 -17 14 -15 0 -16 2 -3 10 8 5 17 5 20 0
7 -11 92 -16 109 -6 8 5 24 -2 42 -20 30 -29 30 -29 147 -26 64 2 124 5 133 8
8 2 25 -5 37 -16 31 -29 141 -40 164 -16 9 9 41 18 72 21 31 3 68 10 84 16 17
7 53 8 97 3 39 -5 59 -10 45 -12 -22 -4 -20 -6 20 -23 25 -10 61 -18 81 -18
20 -1 42 -8 49 -16 9 -11 35 -15 94 -16 44 -1 125 -4 178 -8 73 -4 97 -3 95 6
-3 15 8 15 58 2 29 -8 64 -8 130 1 171 22 183 22 189 3 5 -15 20 -19 91 -21
55 -2 85 0 85 7 0 6 13 17 30 26 16 9 50 36 75 60 40 40 49 45 91 45 41 0 111
-23 124 -41 12 -15 53 -20 85 -9 22 7 40 8 52 2 11 -6 27 -6 42 -1 37 14 11
32 -46 33 -46 1 -48 2 -48 31 0 32 21 43 53 29 24 -10 44 -5 64 16 18 19 122
32 193 24 38 -4 50 -1 121 34 33 16 124 10 124 -9 0 -11 47 -12 52 -1 2 4 35
22 73 41 39 18 87 42 107 53 21 10 55 19 75 20 44 0 123 -21 123 -34 0 -32
215 31 256 75 14 15 33 27 42 27 23 0 40 12 44 30 5 25 87 60 140 60 26 0 48
-4 48 -10 0 -5 18 -10 40 -10 39 0 40 1 40 35 0 32 2 35 20 25 13 -7 39 -7 77
-1 32 5 63 7 70 4 7 -3 29 4 50 15 32 17 140 34 273 44 8 0 44 -4 80 -10 46
-8 66 -8 71 -1 5 8 17 7 43 -2 27 -10 36 -19 36 -36 0 -30 53 -54 90 -41 22 7
25 13 22 51 -2 27 4 59 18 90 18 40 25 47 49 47 16 0 44 -6 63 -14 19 -8 97
-20 174 -25 76 -6 164 -16 194 -22 30 -6 85 -13 123 -16 37 -3 67 -9 67 -15 0
-7 25 -8 75 -3 65 6 83 4 133 -16 31 -13 64 -29 73 -36 9 -8 41 -13 77 -13
l61 0 12 38 c10 35 16 39 67 55 48 14 59 15 83 3 16 -8 65 -14 120 -15 51 -1
96 -6 99 -10 8 -14 160 -25 160 -12 0 7 29 11 83 12 45 1 72 4 60 6 -54 10 -7
43 61 43 34 0 52 6 68 22 16 16 36 22 77 24 l56 2 -45 -7 -45 -8 43 -1 c41 -2
42 -3 42 -37 0 -34 1 -35 40 -35 l40 0 0 80 c0 45 -4 80 -10 80 -5 0 -17 15
-26 33 -20 39 -38 56 -86 82 -21 11 -38 25 -38 32 0 7 -9 13 -19 13 -10 0 -21
7 -24 14 -6 14 -102 66 -123 66 -13 1 -74 58 -74 70 0 5 -13 10 -30 10 -27 0
-30 3 -30 29 0 16 6 36 14 44 16 16 4 37 -21 37 -7 0 -13 5 -13 11 0 12 -71 3
-80 -10 -3 -5 -22 -11 -43 -15 -21 -4 -35 -10 -33 -14 3 -4 -11 -6 -29 -4 -29
3 -40 -2 -75 -37 -41 -41 -60 -50 -60 -31 0 6 -4 10 -10 10 -5 0 -10 -6 -10
-14 0 -11 -18 -14 -84 -12 -76 1 -83 3 -75 18 5 10 15 17 22 15 7 -1 12 5 12
13 0 18 -55 15 -70 -4 -13 -16 -74 -38 -86 -30 -5 3 -32 -11 -60 -31 -28 -20
-56 -34 -62 -32 -6 2 24 25 67 52 64 39 80 46 88 34 8 -11 9 -11 4 3 -4 13 13
26 74 57 83 43 95 47 85 31 -3 -5 1 -10 10 -10 11 0 15 5 11 15 -3 8 -1 15 4
15 6 0 10 -7 10 -15 0 -8 6 -15 14 -15 23 0 28 18 9 29 -21 12 -15 13 56 12
62 -1 94 6 86 20 -4 5 -1 9 5 9 6 0 25 14 42 32 23 23 40 32 64 32 20 0 29 3
21 8 -8 5 -7 8 6 8 10 0 15 5 12 10 -4 6 8 10 27 11 26 0 29 2 13 8 -19 8 -19
8 2 19 28 15 92 36 183 61 41 11 109 29 150 41 66 19 106 22 326 24 288 4 338
-5 417 -74 23 -20 54 -40 68 -43 47 -12 77 -49 102 -127 41 -129 82 -321 116
-557 18 -119 39 -183 60 -183 4 0 18 25 30 55 13 31 46 91 74 133 76 116 110
195 110 255 1 45 -12 79 -92 252 -51 110 -103 227 -116 260 -12 34 -34 83 -47
110 -14 28 -56 145 -93 260 -37 116 -87 269 -112 340 -24 72 -60 193 -79 270
-20 77 -60 214 -89 305 -29 91 -81 270 -114 399 -34 128 -75 269 -92 312 -46
119 -126 270 -213 402 -89 135 -167 294 -221 452 -32 94 -123 298 -154 345
-29 44 -184 315 -214 375 -20 39 -52 120 -72 180 -20 61 -58 169 -85 240 -26
72 -60 182 -74 245 -27 112 -96 272 -170 388 -14 22 -48 96 -76 164 -96 230
-258 520 -429 768 -44 63 -112 169 -152 235 -40 66 -87 141 -105 167 -18 26
-53 87 -78 136 -24 48 -61 105 -83 125 -62 61 -260 198 -347 240 -45 22 -148
80 -230 129 -82 50 -183 106 -225 125 -41 19 -98 45 -126 57 -27 13 -91 42
-142 64 -50 23 -98 42 -105 42 -8 0 -52 19 -99 42 l-84 42 -140 2 c-77 1 -185
9 -240 18 -55 9 -164 20 -243 25 -131 9 -147 12 -210 43 l-67 33 -185 0 c-102
0 -190 3 -197 8 -6 4 -64 11 -130 17 -76 6 -140 17 -178 31 -50 19 -79 22
-174 21 -86 -2 -134 3 -190 18 -42 10 -125 31 -184 45 -59 13 -116 29 -126 35
-10 5 -97 27 -193 49 -117 26 -200 51 -250 75 -42 20 -104 43 -139 52 -35 9
-72 22 -84 30 -21 14 -156 144 -210 203 -16 18 -55 46 -85 61 -35 18 -96 69
-170 142 -69 68 -134 122 -162 136 -45 22 -48 26 -50 65 -1 23 -1 51 0 62 1
11 4 60 6 110 3 49 10 121 15 160 6 38 15 128 21 199 6 72 13 133 15 136 2 3
13 49 24 101 25 115 53 214 74 254 8 17 23 48 32 70 10 22 33 63 51 90 22 33
36 67 40 100 5 47 22 97 64 190 9 22 24 56 33 75 25 58 39 120 32 150 -5 21
-1 34 13 48 14 14 22 41 27 87 6 50 19 91 51 155 24 49 44 97 44 107 0 35 15
46 56 40 138 -20 144 -20 164 -2 24 22 26 45 5 45 -35 0 -107 60 -119 98 -4
12 -12 22 -17 22 -5 0 -9 7 -9 16 0 8 4 13 9 9 6 -3 6 6 1 25 -5 18 -5 77 0
138 12 152 37 196 76 137 9 -14 20 -23 24 -20 5 3 15 -3 22 -14 13 -18 14 -18
36 -1 16 13 22 29 22 59 0 28 4 41 13 41 14 0 27 71 42 225 4 33 22 139 42
235 l36 175 -1 255 c-1 280 -7 319 -59 365 -37 32 -93 33 -127 3 -48 -44 -64
-56 -70 -51 -3 3 -17 -7 -31 -23 -20 -21 -25 -36 -23 -63 2 -30 7 -36 25 -35
17 0 25 -8 33 -32 6 -18 10 -39 9 -46 -1 -7 1 -20 4 -28 15 -39 39 -142 48
-210 6 -41 15 -76 20 -78 15 -6 11 -318 -6 -404 -22 -117 -36 -168 -47 -168
-5 0 -7 -4 -3 -10 8 -12 -18 -72 -38 -89 -15 -12 -17 -11 -19 10 -2 41 5 96
17 122 14 32 0 255 -17 275 -21 23 -30 132 -18 212 5 35 6 67 2 70 -5 3 -9 14
-9 25 -1 11 -6 42 -12 69 -5 30 -6 59 0 74 11 30 3 45 -21 37 -16 -5 -19 2
-25 60 -5 45 -4 70 4 78 8 8 11 6 12 -8 1 -11 5 -2 10 19 6 26 6 43 -1 50 -7
7 -10 2 -11 -14 -2 -36 -18 46 -18 94 -1 30 2 37 14 32 8 -3 15 -1 15 4 0 6 5
10 10 10 6 0 10 -13 10 -30 0 -16 4 -30 9 -30 14 0 23 33 10 40 -16 11 -14 19
16 50 35 37 131 83 156 75 10 -4 33 -22 51 -41 32 -33 68 -45 68 -22 0 22
-101 108 -127 108 -25 0 -115 -48 -182 -98 l-33 -25 7 24 c17 57 157 151 212
142 l28 -5 -24 17 c-18 14 -34 16 -80 11 -134 -16 -181 -18 -181 -9 0 9 14 31
64 98 9 11 20 62 26 114 6 51 16 103 23 115 9 16 12 125 11 436 -1 228 -2 440
-2 470 -1 30 0 152 1 270 1 118 -1 262 -6 320 -4 58 -12 170 -17 250 -13 190
-23 231 -65 268 -18 17 -55 61 -81 99 -27 37 -51 70 -55 73 -3 3 -22 37 -41
75 -29 58 -33 76 -27 105 4 19 12 36 18 38 17 6 13 57 -6 74 -10 8 -39 27 -65
41 -87 50 -115 127 -73 207 10 19 14 42 10 59 -6 27 17 63 47 73 18 7 -56 92
-242 278 -162 162 -237 219 -382 290 -46 23 -115 64 -154 93 -114 83 -142 101
-229 148 -47 25 -90 59 -147 114 -23 21 -54 46 -69 55 -61 33 -172 113 -209
150 -46 46 -59 83 -38 108 20 23 21 119 2 157 -9 16 -19 50 -22 75 -7 44 -8
45 -72 72 -75 31 -68 29 -99 17z m103 -181 c60 -45 69 -64 34 -77 -13 -5 -31
-18 -42 -30 -14 -15 -23 -18 -37 -11 -10 6 -35 10 -56 10 -57 0 -69 26 -36 75
37 55 56 75 69 75 6 0 37 -19 68 -42z m6 -165 c0 -7 -4 -13 -10 -13 -5 0 -10
12 -10 28 0 21 2 24 10 12 5 -8 10 -21 10 -27z m-510 -1082 c139 -18 254 -32
345 -41 50 -4 110 -15 135 -24 25 -8 49 -11 55 -7 5 5 33 10 60 11 67 3 77 2
70 -10 -4 -6 8 -10 29 -10 20 0 36 -4 36 -8 0 -5 20 -19 45 -32 25 -13 45 -27
45 -32 0 -4 16 -8 37 -8 20 0 33 -3 30 -7 -11 -10 24 -43 45 -43 10 0 18 -7
18 -15 0 -11 10 -13 48 -9 40 5 52 2 82 -20 30 -23 34 -31 31 -67 -3 -40 -2
-40 30 -37 28 2 35 8 43 37 9 33 10 33 55 27 25 -3 51 -13 57 -21 15 -20 81
-65 97 -66 44 -2 197 -161 197 -204 0 -12 9 -30 20 -40 11 -10 20 -22 20 -27
0 -5 6 -16 14 -23 7 -8 16 -32 20 -54 3 -23 10 -41 14 -41 5 0 19 -25 33 -55
13 -30 27 -55 32 -55 4 0 7 -11 7 -25 0 -14 4 -25 9 -25 5 0 14 -13 21 -30 7
-16 16 -30 21 -30 4 0 14 -19 21 -42 6 -24 15 -45 19 -48 20 -15 29 -58 29
-132 0 -64 5 -93 20 -123 11 -22 20 -43 20 -48 0 -4 10 -21 21 -37 19 -25 21
-38 17 -100 -6 -77 13 -202 31 -208 6 -2 11 -10 11 -18 0 -8 7 -25 15 -38 10
-14 22 -77 30 -156 8 -72 18 -136 21 -141 5 -8 9 -30 33 -159 5 -25 16 -97 25
-160 43 -293 58 -389 96 -624 11 -71 16 -911 6 -996 -3 -25 -8 -71 -10 -103
-3 -31 -8 -62 -11 -67 -3 -5 0 -46 6 -91 10 -61 10 -82 1 -88 -6 -4 -15 -23
-19 -41 -6 -32 -5 -34 10 -21 15 12 17 10 17 -21 0 -44 -7 -51 -31 -30 -15 13
-19 30 -19 77 0 40 -3 55 -9 46 -8 -12 -11 -9 -16 12 -5 19 -14 27 -29 27 -19
0 -21 5 -18 45 3 28 0 45 -7 45 -6 0 -11 -15 -11 -34 0 -19 -5 -38 -12 -42 -7
-5 -3 -11 13 -17 14 -5 19 -11 12 -14 -7 -3 -14 -14 -14 -26 -1 -17 -2 -18 -6
-4 -6 22 -73 25 -73 2 0 -18 -16 -20 -24 -2 -5 10 -7 10 -12 0 -3 -7 -12 -13
-20 -13 -8 0 -14 6 -15 13 0 10 -2 10 -6 0 -6 -15 -63 -18 -63 -3 0 6 -4 10
-10 10 -5 0 -10 -9 -10 -20 0 -17 -7 -20 -40 -20 -22 0 -40 5 -40 10 0 6 -18
10 -40 10 -22 0 -40 -4 -40 -9 0 -5 -20 -11 -44 -12 -24 -2 -42 0 -39 4 3 5
-4 17 -16 28 -12 11 -21 24 -21 28 0 5 -24 20 -52 35 -50 24 -148 107 -148
124 0 12 -54 62 -67 62 -6 0 -13 4 -15 8 -4 10 -93 72 -103 72 -4 0 -18 9 -32
20 -14 11 -32 20 -40 20 -15 0 -106 58 -111 72 -2 4 -14 8 -27 8 -13 0 -26 4
-30 9 -3 5 -20 13 -38 16 -27 6 -70 25 -151 67 -30 16 -66 19 -66 7 0 -6 9
-13 20 -16 18 -5 20 -14 20 -83 0 -53 4 -80 13 -84 10 -5 10 -7 0 -12 -16 -7
-17 -44 -2 -44 15 0 7 -122 -8 -127 -6 -2 -9 -13 -6 -23 6 -21 -10 -21 -123
-4 -41 6 -54 41 -19 50 17 4 26 17 33 45 5 21 6 39 2 39 -5 0 -11 8 -15 19 -7
22 -39 61 -50 61 -4 0 -19 12 -34 28 l-25 27 -7 -30 c-6 -29 -7 -29 -8 -4 0
15 -11 33 -23 42 -21 14 -21 16 -4 16 13 1 17 6 13 21 -3 12 1 23 10 29 12 6
14 18 9 52 -8 50 -20 70 -55 89 -22 11 -26 10 -42 -11 -9 -13 -20 -35 -23 -50
-11 -56 -62 -79 -133 -61 -24 7 -60 12 -81 12 -28 0 -46 8 -74 35 -21 18 -38
41 -38 49 0 8 -4 17 -9 20 -13 8 -42 -4 -35 -15 3 -5 1 -9 -4 -9 -5 0 -12 -8
-14 -18 -6 -20 -153 -96 -168 -87 -5 3 -36 -8 -69 -24 -86 -41 -137 -49 -164
-23 -12 11 -33 22 -47 25 -14 3 -59 15 -100 27 -41 12 -92 26 -113 32 -20 6
-42 17 -48 25 -16 19 -47 16 -76 -7 -14 -11 -31 -20 -38 -20 -7 0 -23 -8 -36
-18 -34 -26 -159 -72 -195 -72 -16 0 -54 12 -83 26 -28 15 -54 24 -57 22 -2
-3 0 -16 5 -30 5 -14 7 -43 4 -64 -5 -37 -2 -42 63 -108 57 -58 65 -70 53 -80
-11 -7 -16 -30 -16 -71 -2 -109 -35 -137 -193 -163 -41 -7 -96 -17 -122 -22
-31 -6 -57 -6 -74 0 -14 6 -46 10 -71 10 -57 0 -123 19 -130 38 -3 7 1 20 10
29 11 11 13 23 7 43 -4 15 -4 34 1 41 5 8 9 49 9 92 0 74 -1 77 -24 77 -44 0
-84 -12 -105 -31 -11 -11 -25 -19 -31 -19 -10 0 -67 -36 -80 -51 -21 -23 -61
-39 -100 -39 -42 0 -48 -4 -78 -42 -18 -23 -32 -45 -32 -50 0 -4 -7 -8 -15 -8
-8 0 -15 -4 -15 -8 0 -5 -18 -17 -39 -27 -22 -10 -42 -24 -45 -31 -3 -8 -11
-14 -19 -14 -7 0 -23 -13 -35 -30 -34 -46 -26 -150 11 -150 10 0 13 -19 13
-64 0 -46 5 -68 17 -81 9 -9 17 -23 17 -30 0 -8 19 -36 43 -63 112 -129 141
-164 154 -182 8 -11 21 -20 29 -20 8 0 14 -3 14 -8 0 -4 9 -13 20 -20 31 -19
60 3 58 45 -1 18 4 38 10 46 12 14 46 16 58 4 4 -4 13 -7 20 -7 8 0 39 -16 70
-36 31 -20 70 -42 87 -50 18 -8 39 -18 47 -23 8 -5 26 -14 40 -20 63 -30 108
-56 144 -84 34 -27 47 -31 94 -30 33 1 58 7 64 15 4 7 5 61 2 121 -7 103 -6
107 14 107 11 0 34 -16 52 -36 30 -34 32 -35 50 -19 10 9 22 29 25 44 3 14 16
40 29 56 l24 30 29 -21 c15 -11 35 -24 43 -28 8 -4 26 -13 40 -21 23 -13 27
-11 72 31 26 24 56 44 66 44 10 0 37 -12 58 -27 89 -62 84 -62 145 -4 33 31
106 50 145 37 16 -5 51 -24 79 -43 27 -18 54 -33 59 -33 4 0 34 16 66 35 48
29 72 37 142 44 96 9 104 7 122 -26 l13 -25 35 35 c48 48 124 71 176 54 33
-11 38 -17 49 -61 7 -26 15 -51 18 -54 3 -3 22 10 41 30 31 30 34 37 22 49
-23 21 -10 49 22 49 38 0 56 -23 42 -54 -12 -28 2 -96 20 -96 6 0 30 16 54 35
23 19 49 35 57 35 9 0 23 -20 33 -47 23 -64 27 -67 62 -49 39 20 39 20 52 -4
22 -42 2 -70 -78 -107 -42 -19 -82 -42 -89 -51 -9 -13 -15 -14 -21 -5 -4 7
-24 19 -44 27 -33 14 -37 14 -53 -4 -9 -10 -30 -23 -45 -29 -23 -8 -33 -6 -51
10 -28 24 -81 39 -143 39 -43 0 -52 4 -82 37 -19 20 -36 45 -40 55 -10 32 -24
8 -24 -42 0 -42 -5 -53 -37 -87 -21 -22 -51 -45 -68 -53 l-30 -14 50 -7 c28
-4 108 -8 178 -9 159 -4 227 -10 227 -21 0 -5 -7 -9 -16 -9 -12 0 -11 -4 7
-19 18 -15 27 -16 41 -7 10 6 14 12 8 14 -14 5 -13 55 2 70 9 9 8 12 -7 12
-10 0 -16 2 -13 5 10 11 58 -7 58 -21 0 -10 12 -14 40 -14 38 0 40 -2 40 -30
0 -39 48 -90 88 -95 38 -5 69 28 70 73 1 43 54 111 94 119 16 3 34 15 40 26
27 51 88 109 127 122 12 3 21 13 21 21 0 7 9 19 20 26 11 7 20 16 20 19 0 14
59 69 74 69 9 0 16 4 16 10 0 13 42 8 58 -7 6 -6 12 -34 12 -62 0 -27 4 -53
10 -56 5 -3 9 -23 9 -43 0 -20 3 -65 7 -99 6 -58 8 -63 30 -63 25 0 30 16 25
87 -1 23 3 33 17 37 26 8 76 65 100 112 11 22 43 60 71 86 28 26 51 55 51 63
0 8 6 15 14 15 7 0 16 9 19 21 4 13 12 19 23 17 11 -2 40 19 75 54 46 45 62
69 74 113 16 55 35 81 35 49 0 -14 5 -13 29 10 31 30 51 28 51 -5 0 -10 4 -19
9 -19 17 0 44 -75 42 -114 -2 -45 -25 -105 -40 -107 -6 -1 -14 -3 -18 -4 -5
-2 -19 -6 -32 -10 -22 -7 -23 -12 -18 -61 4 -36 1 -58 -8 -71 -8 -10 -15 -39
-15 -65 0 -27 -4 -48 -8 -48 -8 0 -32 -52 -38 -84 -3 -11 -11 -33 -19 -49 -8
-17 -15 -39 -15 -49 0 -11 -8 -38 -19 -61 -10 -23 -21 -50 -24 -59 -4 -10 -13
-18 -22 -18 -8 0 -15 -7 -15 -15 0 -11 -11 -15 -40 -15 -36 0 -40 -2 -40 -25
0 -19 5 -25 21 -25 16 0 19 -4 14 -22 -9 -30 -33 -68 -44 -68 -10 0 -31 -46
-31 -69 0 -9 -15 -42 -34 -73 -18 -31 -36 -68 -40 -82 -3 -14 -19 -40 -35 -58
-15 -18 -38 -52 -50 -75 -12 -24 -26 -43 -31 -43 -6 0 -10 -4 -10 -10 0 -13
-48 -60 -62 -60 -13 0 -98 -86 -98 -99 0 -5 -9 -12 -19 -16 -11 -3 -23 -15
-26 -26 -7 -21 -62 -53 -112 -63 -17 -4 -37 -14 -44 -22 -14 -17 -146 -20
-183 -3 -42 20 -138 -7 -189 -53 -23 -21 -48 -38 -55 -38 -8 0 -26 -8 -40 -19
-15 -10 -37 -21 -49 -25 -12 -4 -32 -23 -43 -42 -12 -18 -25 -34 -30 -34 -14
0 -90 -84 -90 -100 0 -17 -44 -40 -76 -40 -32 0 -49 -21 -69 -85 -17 -52 -19
-55 -51 -55 -47 0 -81 -18 -95 -51 -8 -21 -18 -29 -37 -29 -27 0 -62 25 -62
45 0 13 -64 35 -104 35 -14 0 -25 -5 -24 -12 3 -11 -82 -48 -110 -48 -7 0 -25
12 -40 27 -31 32 -57 47 -95 57 -29 7 -50 23 -126 93 -25 24 -52 43 -58 43 -7
0 -13 5 -13 12 0 9 -3 9 -12 0 -13 -13 -58 -16 -58 -4 0 14 -69 11 -81 -4 -14
-16 -84 -20 -74 -3 4 6 1 10 -6 9 -21 -3 -59 11 -59 22 0 5 5 6 12 2 6 -4 21
5 34 21 l23 29 -20 28 c-25 35 -51 36 -69 3 -7 -14 -37 -37 -66 -52 -45 -23
-57 -25 -78 -15 -15 6 -26 18 -26 25 0 21 -66 79 -86 75 -16 -3 -50 -50 -52
-73 -1 -17 -22 -18 -22 -1 0 9 -4 16 -10 16 -5 0 -28 27 -50 60 -22 33 -46 60
-53 60 -10 0 -57 29 -149 91 -15 11 -41 19 -57 19 -16 0 -33 4 -36 10 -3 5
-25 18 -48 28 -23 11 -50 29 -61 40 -10 12 -35 26 -55 33 -36 12 -81 45 -81
61 0 5 -8 21 -17 35 -10 14 -19 37 -21 51 -2 13 -10 31 -18 39 -7 8 -14 19
-14 24 0 5 -11 11 -25 15 -14 3 -25 10 -25 16 0 5 -10 19 -22 31 -13 12 -28
31 -34 42 -6 11 -32 30 -57 43 -25 13 -48 31 -51 40 -11 29 -34 64 -47 73 -7
4 -31 8 -53 8 -23 1 -50 3 -61 4 -34 5 -124 51 -125 65 0 6 -6 12 -14 12 -8 0
-24 20 -36 45 -12 24 -29 46 -38 49 -9 3 -35 23 -57 43 -23 21 -56 49 -75 63
-89 66 -106 124 -94 321 5 87 4 119 -5 119 -6 0 -11 -7 -11 -15 0 -18 -17 -20
-23 -2 -3 10 -9 10 -26 0 -25 -16 -51 -17 -51 -3 0 6 -9 10 -19 10 -11 0 -21
5 -23 10 -2 6 -25 11 -52 12 -38 0 -50 4 -53 19 -3 10 -8 17 -12 15 -12 -7 0
67 15 102 8 17 19 32 24 32 6 0 10 7 10 15 0 8 4 15 9 15 16 0 18 74 3 85 -8
6 -17 38 -21 70 -4 33 -15 73 -26 88 -15 24 -16 32 -7 48 10 16 10 30 -1 67
-12 38 -13 115 -9 399 4 262 2 368 -8 415 -19 95 -20 116 -20 488 -1 442 16
795 38 830 12 18 16 54 17 135 1 61 6 143 10 183 5 51 4 72 -4 72 -6 0 -11 17
-11 40 0 33 4 40 19 40 27 0 33 43 37 275 3 173 7 213 28 297 14 54 32 111 41
127 8 17 15 37 15 45 0 31 41 85 70 91 25 5 42 27 45 56 0 9 53 69 60 69 4 0
24 18 45 40 21 22 43 40 49 40 6 0 8 6 5 14 -4 9 15 21 63 37 38 14 86 40 111
61 24 21 55 41 70 44 15 4 46 17 69 30 23 14 46 24 50 23 22 -4 36 5 83 50
l51 49 58 -5 c64 -6 249 32 329 67 25 11 50 20 57 20 7 0 18 6 24 14 6 7 33
19 59 26 75 19 134 41 181 68 43 25 248 112 264 112 4 0 27 8 50 18 23 10 61
27 85 37 23 10 42 22 42 27 0 11 270 2 399 -13 90 -11 197 -6 406 17 72 8 135
14 142 14 7 0 10 7 6 16 -7 18 6 18 177 -5z m-3210 -1881 c0 -8 -9 -21 -20
-27 -16 -11 -21 -10 -30 7 -16 29 7 62 32 47 10 -7 18 -19 18 -27z m4026
-2298 c18 -29 27 -82 14 -82 -22 0 -40 29 -40 64 0 39 9 46 26 18z m-1496
-313 c122 -16 302 -16 397 0 95 15 193 8 193 -15 0 -8 -10 -14 -22 -15 l-23 0
23 -9 c27 -12 29 -30 2 -30 -11 0 -20 -6 -20 -12 0 -7 -9 -24 -20 -38 -16 -20
-20 -22 -20 -7 0 24 -37 22 -45 -3 -3 -11 -13 -20 -21 -20 -8 0 -14 -4 -14 -8
0 -16 -80 -33 -157 -33 -43 -1 -107 -8 -143 -16 -36 -9 -111 -18 -168 -20 -89
-4 -111 -1 -175 21 -39 13 -108 28 -152 31 -44 4 -85 11 -91 16 -7 6 -46 5
-100 -1 -49 -6 -132 -13 -184 -16 -87 -4 -116 -11 -182 -45 -41 -21 -135 -2
-100 20 5 3 11 15 13 26 3 16 20 24 84 39 44 10 103 27 130 38 56 22 71 28
170 60 53 17 95 22 170 23 60 0 108 5 120 12 26 16 221 17 335 2z m2510 -4 c0
-11 -11 -15 -40 -15 -38 0 -49 8 -33 23 3 4 21 7 40 7 23 0 33 -5 33 -15z
m138 -76 c-2 -6 -8 -10 -13 -10 -5 0 -11 4 -13 10 -2 6 4 11 13 11 9 0 15 -5
13 -11z m142 -19 c0 -5 -4 -10 -9 -10 -6 0 -13 5 -16 10 -3 6 1 10 9 10 9 0
16 -4 16 -10z m-965 -360 c3 -5 1 -10 -4 -10 -6 0 -11 5 -11 10 0 6 2 10 4 10
3 0 8 -4 11 -10z m-668 -246 c-3 -3 -12 -4 -19 -1 -8 3 -5 6 6 6 11 1 17 -2
13 -5z m-167 -24 c0 -5 -7 -10 -16 -10 -8 0 -12 5 -9 10 3 6 10 10 16 10 5 0
9 -4 9 -10z m-2732 -2484 c8 -17 22 -26 51 -31 35 -6 41 -10 41 -32 0 -25 -1
-25 -25 -9 -13 9 -31 16 -39 16 -8 0 -17 9 -21 19 -3 10 -15 21 -25 24 -11 3
-20 12 -20 21 0 24 25 19 38 -8z m-63 -126 c3 -5 1 -10 -4 -10 -6 0 -11 5 -11
10 0 6 2 10 4 10 3 0 8 -4 11 -10z m155 -105 c0 -8 -4 -15 -9 -15 -5 0 -14 7
-21 15 -10 13 -9 15 9 15 12 0 21 -6 21 -15z m382 -118 c26 -7 50 -16 54 -20
4 -4 34 -7 66 -7 32 0 58 -4 58 -9 0 -5 16 -12 36 -16 20 -3 43 -12 50 -18 34
-31 44 -37 59 -37 8 0 15 -7 15 -15 0 -8 4 -15 9 -15 5 0 19 -11 32 -25 18
-19 34 -25 67 -25 28 0 48 -6 61 -19 10 -10 41 -22 68 -26 56 -7 92 -24 58
-26 -11 -1 -4 -4 15 -8 32 -5 35 -9 38 -43 2 -29 0 -38 -12 -38 -9 0 -16 -7
-16 -15 0 -9 -12 -27 -27 -40 -24 -20 -25 -24 -10 -25 21 0 77 -49 77 -66 0
-7 9 -14 20 -17 11 -3 20 -14 20 -25 0 -24 40 -52 75 -52 26 0 107 -48 158
-93 16 -14 42 -29 57 -32 16 -3 34 -13 41 -21 6 -8 17 -14 23 -14 18 -1 68
-78 54 -83 -8 -3 -2 -9 14 -15 14 -6 29 -16 33 -21 3 -6 15 -11 26 -11 11 0
22 -6 25 -14 3 -8 40 -27 82 -42 42 -15 84 -33 93 -41 8 -7 19 -13 23 -13 4 0
24 -11 44 -25 20 -14 42 -25 49 -25 7 0 26 -13 43 -30 17 -16 37 -30 44 -30 7
0 24 -11 37 -24 26 -25 145 -76 178 -76 12 0 21 -6 21 -15 0 -9 9 -15 23 -15
13 0 29 -6 35 -12 10 -10 15 -10 20 -1 9 14 132 15 150 1 6 -6 12 -21 12 -34
0 -22 4 -24 43 -24 32 0 53 7 80 28 20 15 36 32 37 39 1 36 219 56 405 38 65
-6 73 -5 108 19 21 14 42 26 46 26 12 0 81 65 81 76 0 24 63 46 150 51 50 3
90 10 90 15 0 6 21 8 48 6 43 -4 86 12 112 42 7 8 59 30 71 30 14 0 39 -64 39
-100 0 -17 -9 -39 -20 -50 -11 -11 -23 -34 -27 -51 -4 -20 -10 -28 -19 -25
-10 4 -14 -3 -14 -25 0 -18 4 -28 10 -24 14 9 12 -8 -2 -24 -11 -11 -10 -12 1
-6 35 20 -161 -298 -280 -456 -105 -139 -440 -444 -564 -514 -112 -63 -345
-149 -515 -189 -284 -68 -880 -85 -1240 -36 -166 22 -310 50 -375 73 -102 36
-222 148 -495 462 -175 201 -224 273 -321 470 -92 188 -124 272 -164 442 -27
112 -32 149 -15 123 6 -10 10 -11 10 -2 0 28 112 5 160 -35 9 -7 30 -13 48
-15 18 -1 32 -6 32 -10 0 -9 121 -11 144 -2 9 3 16 12 16 20 0 16 5 17 49 8
17 -4 31 -12 31 -18 0 -17 73 -42 78 -27 2 7 33 11 83 11 44 0 78 4 75 9 -3 5
-19 7 -36 6 -16 -1 -30 1 -30 6 0 5 -7 6 -15 3 -12 -5 -15 2 -15 32 0 46 -30
124 -47 124 -9 0 -13 20 -13 65 0 36 -4 65 -9 65 -5 0 -18 20 -30 44 -11 25
-28 50 -38 58 -25 18 -55 67 -49 77 3 5 -3 11 -14 14 -11 3 -29 21 -41 41 -11
20 -25 36 -30 36 -20 0 -69 44 -69 62 0 13 -8 18 -30 18 -28 0 -30 2 -30 40 0
23 -5 40 -11 40 -8 0 -8 5 1 15 8 10 30 15 61 15 37 0 49 4 49 15 0 11 11 15
40 15 22 0 40 4 40 9 0 6 -9 8 -20 6 -12 -2 -18 0 -15 6 4 5 11 7 16 4 11 -7
59 43 59 61 0 8 9 14 20 14 13 0 20 7 20 20 0 17 7 20 48 20 26 -1 68 -6 94
-13z m1290 -428 c9 -5 39 -9 67 -9 27 0 53 -4 56 -10 12 -19 -114 -14 -136 6
-8 8 -25 14 -37 14 -11 0 -23 4 -26 9 -7 11 51 3 76 -10z m-4645 -3725 c24 -4
47 -12 53 -19 11 -13 -1 -133 -21 -207 -5 -21 -20 -114 -33 -207 -13 -93 -27
-174 -31 -180 -17 -28 -143 3 -163 40 -9 17 -12 63 -10 155 3 110 6 135 21
152 11 12 25 60 37 130 24 140 31 156 73 148 18 -3 51 -8 74 -12z m845 -225
l-3 -75 33 -9 c29 -9 33 -15 36 -47 5 -56 -11 -78 -57 -78 -21 0 -44 -6 -50
-14 -13 -16 -31 -151 -22 -165 3 -4 17 -12 31 -16 31 -10 40 -22 40 -58 0 -58
-13 -67 -100 -67 -69 0 -82 3 -108 25 -40 34 -45 63 -32 188 11 100 11 106 -8
125 -39 39 -36 122 3 122 8 0 22 12 32 28 29 46 57 73 93 89 42 18 91 32 105
28 6 -1 9 -33 7 -76z m322 18 c0 -31 -6 -52 -15 -58 -19 -12 -91 -11 -125 1
-23 9 -26 14 -20 43 10 50 39 68 105 65 l56 -3 -1 -48z m-757 -22 c99 -49 118
-81 117 -195 -1 -47 -9 -112 -18 -145 -9 -32 -16 -74 -16 -91 0 -56 -55 -57
-118 -3 -32 29 -34 29 -157 29 -121 0 -125 1 -141 24 -22 35 -22 103 1 158 18
42 26 50 65 62 25 8 84 18 133 22 92 7 110 16 83 42 -14 14 -38 17 -134 17
l-117 0 -3 27 c-2 19 6 36 34 63 l37 38 81 -6 c65 -5 96 -14 153 -42z m723
-115 c0 -17 -7 -64 -15 -105 -9 -40 -21 -127 -28 -192 l-12 -118 -79 -3 -78
-3 7 63 c4 35 15 106 25 158 10 52 21 113 24 135 4 22 12 52 18 68 10 25 14
27 74 27 l64 0 0 -30z m429 -36 c86 -32 124 -71 140 -143 22 -104 -22 -208
-108 -255 -41 -22 -61 -26 -129 -26 -96 0 -180 16 -206 39 -42 37 -70 102 -70
165 -1 79 39 167 87 193 111 61 178 67 286 27z m414 -56 c24 -16 38 -19 80
-14 43 5 61 2 105 -19 83 -39 113 -78 107 -139 -3 -23 -10 -88 -16 -144 -5
-57 -13 -110 -16 -118 -8 -22 -34 -24 -108 -11 -65 12 -70 15 -73 40 -2 15 4
64 12 110 24 124 22 155 -10 167 -40 16 -53 12 -73 -21 -17 -28 -47 -159 -53
-234 l-3 -30 -80 4 c-83 3 -110 14 -100 39 3 8 12 56 20 106 24 144 47 259 57
279 8 16 17 17 66 12 32 -4 70 -16 85 -27z m1067 -51 c21 -11 25 -19 23 -52
-1 -22 -4 -123 -8 -225 -3 -102 -8 -205 -11 -229 l-6 -43 -71 7 c-105 10 -108
13 -102 93 2 37 7 128 10 202 3 74 8 166 12 204 l6 68 61 -7 c34 -3 72 -12 86
-18z m-381 -34 c50 -25 60 -35 88 -93 32 -64 33 -67 33 -212 0 -138 -1 -148
-19 -148 -20 0 -84 23 -116 42 -13 8 -59 11 -135 9 -141 -3 -163 4 -184 61
-14 37 -15 49 -3 88 20 68 72 99 185 110 109 10 149 24 132 45 -22 27 -78 30
-125 6 -44 -22 -79 -26 -134 -15 -29 6 -32 10 -26 33 9 39 32 70 68 92 47 30
160 21 236 -18z m4547 13 c3 -13 4 -38 2 -57 l-3 -34 -62 0 c-67 0 -79 -5 -69
-31 6 -17 32 -16 93 2 33 9 40 -16 52 -201 6 -94 14 -187 17 -207 5 -31 2 -38
-16 -48 -30 -16 -146 -18 -161 -3 -8 9 -13 81 -16 248 -2 130 -8 245 -13 255
-6 10 -10 32 -10 49 0 33 8 37 80 44 90 10 99 8 106 -17z m-348 -67 c5 -84 7
-88 51 -82 36 5 41 3 46 -19 4 -14 5 -44 3 -69 l-3 -44 -43 -3 -43 -3 2 -72
c3 -102 5 -109 37 -103 43 9 55 -6 60 -73 4 -58 3 -60 -22 -67 -14 -3 -66 -4
-115 -3 -125 5 -130 10 -143 165 -9 103 -14 122 -34 145 -31 32 -30 69 1 103
14 15 25 35 25 44 0 10 7 27 15 39 17 25 134 94 150 90 6 -2 11 -23 13 -48z
m-3170 9 c81 -67 116 -145 215 -478 29 -97 41 -170 29 -170 -27 0 -95 66 -119
115 -23 47 -33 56 -72 70 -24 8 -68 15 -97 15 -50 0 -53 -1 -59 -30 -11 -51
-28 -60 -116 -60 -61 0 -81 3 -85 15 -15 38 223 555 255 555 5 0 27 -15 49
-32z m6153 -57 c38 -39 37 -67 -2 -89 -75 -41 -82 -51 -77 -108 3 -40 13 -65
41 -106 39 -57 47 -100 23 -133 -21 -29 -101 -14 -144 28 -47 44 -61 82 -68
185 -6 77 -4 94 15 137 26 60 47 84 86 101 51 23 93 17 126 -15z m-847 0 c88
-33 92 -44 100 -303 6 -177 5 -179 -65 -151 -35 14 -51 14 -129 3 -98 -14
-149 -8 -198 22 -38 23 -52 52 -52 107 0 55 29 85 108 115 52 19 161 46 189
46 3 0 3 15 1 33 -3 29 -7 32 -38 35 -25 2 -47 -4 -71 -21 -20 -13 -58 -27
-85 -31 -27 -4 -61 -9 -76 -12 -26 -5 -28 -3 -28 26 0 39 23 74 67 101 78 48
196 61 277 30z m-793 -14 c20 -7 47 -21 61 -32 28 -23 53 -64 44 -73 -15 -15
-123 -13 -160 2 -46 19 -106 21 -106 4 0 -27 19 -40 61 -44 170 -18 256 -94
235 -208 -18 -93 -153 -131 -326 -91 -94 22 -119 34 -135 66 -20 39 -19 45 13
57 65 25 109 25 168 -2 65 -30 109 -33 118 -10 10 25 0 32 -77 54 -184 54
-196 59 -212 97 -8 20 -15 48 -15 63 0 30 38 83 73 102 47 25 199 34 258 15z
m1098 -12 c12 -12 17 -11 38 2 13 8 47 16 77 17 75 2 100 -23 120 -118 21 -97
36 -317 24 -333 -16 -20 -104 -17 -112 4 -4 9 -6 75 -5 145 l2 129 -29 30 -28
29 -29 -27 -29 -28 8 -100 c4 -55 8 -118 8 -140 l1 -40 -74 -3 c-41 -2 -79 2
-84 7 -5 5 -14 81 -19 168 -5 87 -13 181 -18 208 -12 69 -2 78 74 70 34 -3 67
-12 75 -20z m-3362 -91 c39 -20 55 -33 59 -53 3 -14 8 -33 11 -41 3 -8 9 -80
13 -160 5 -80 11 -160 15 -177 7 -32 6 -33 -22 -33 -37 0 -92 18 -115 37 -13
12 -27 12 -74 4 -89 -17 -155 -14 -199 9 -22 11 -43 20 -47 20 -4 0 -11 -19
-14 -42 -8 -48 -36 -81 -67 -76 -20 3 -22 7 -17 63 2 33 4 87 5 120 l0 60 -36
3 c-30 3 -39 -2 -54 -24 -15 -24 -17 -42 -11 -149 6 -95 4 -124 -6 -132 -16
-13 -125 -36 -141 -30 -9 3 -12 62 -12 218 l0 213 49 19 c49 18 50 18 77 -2
22 -17 29 -18 45 -7 22 16 139 46 176 46 33 0 52 -23 45 -57 -3 -15 -1 -38 4
-51 l9 -24 38 34 c27 24 63 41 130 61 98 30 111 44 67 73 -30 19 -58 12 -103
-28 -20 -17 -43 -28 -55 -26 -19 3 -22 9 -21 47 1 38 7 49 37 78 33 30 42 33
98 33 47 0 75 -7 116 -26z m607 16 l26 -10 0 -185 c0 -222 -1 -225 -100 -225
-33 0 -69 5 -79 12 -15 9 -24 7 -45 -9 -34 -27 -135 -40 -176 -23 -19 8 -37
28 -50 55 -18 38 -20 58 -18 196 l3 154 60 7 c33 4 72 5 87 2 l28 -5 -5 -119
c-3 -103 -1 -122 14 -141 17 -21 18 -21 49 -5 39 20 41 31 45 176 l2 115 35 6
c56 10 97 10 124 -1z m-2175 -95 c69 -35 131 -155 110 -212 -7 -18 -19 -21
-133 -27 -169 -10 -181 -14 -181 -57 0 -29 4 -34 27 -37 14 -2 45 6 67 17 30
16 59 21 115 21 41 0 78 -5 81 -10 10 -17 -21 -57 -65 -85 -84 -53 -242 -72
-320 -37 -72 30 -115 159 -86 257 16 51 74 118 126 146 92 47 196 57 259 24z
m241 -41 c42 -9 46 -24 19 -79 -31 -61 -51 -59 -67 8 -19 84 -19 84 48 71z
m376 -29 c67 -20 119 -66 155 -137 28 -55 30 -66 24 -122 -14 -120 -61 -169
-184 -187 -129 -19 -247 35 -296 136 -24 48 -27 64 -23 118 7 86 33 135 92
175 42 28 56 32 115 32 37 0 90 -7 117 -15z m2144 -375 c0 -5 -6 -10 -12 -10
-9 0 -8 -4 2 -10 12 -8 11 -10 -6 -10 -11 0 -29 -7 -40 -15 -10 -8 -28 -15
-38 -15 -13 0 -7 8 20 26 21 15 41 30 42 35 5 12 32 11 32 -1z m-6660 -49 c73
-28 127 -79 151 -143 10 -28 16 -55 12 -61 -6 -10 -134 -4 -165 8 -9 4 -28 24
-42 46 -24 35 -30 39 -69 39 -24 0 -52 -7 -63 -15 -19 -15 -19 -15 1 -31 11
-8 67 -38 125 -67 160 -78 200 -124 200 -230 0 -76 -52 -138 -148 -177 -47
-19 -190 -8 -277 21 -60 21 -73 30 -99 69 -33 49 -49 151 -26 165 12 7 103 -8
147 -25 13 -6 23 -19 25 -37 2 -20 14 -34 43 -50 69 -39 135 -24 135 30 0 38
-27 63 -97 93 -151 63 -209 111 -227 187 -14 60 65 170 141 194 52 17 166 9
233 -16z m320 -222 c19 -6 78 -12 130 -13 107 -2 159 -20 194 -69 18 -24 21
-43 21 -130 0 -93 -3 -107 -30 -162 -50 -99 -124 -133 -222 -100 -38 13 -57
15 -64 8 -6 -6 -13 -47 -16 -92 l-6 -81 -57 0 c-41 0 -61 5 -71 16 -18 22 -14
128 11 309 16 116 27 226 30 293 0 7 10 17 23 22 12 5 22 9 22 9 0 1 16 -4 35
-10z m772 -62 c20 -7 55 -29 77 -50 39 -36 41 -40 41 -100 0 -34 -7 -102 -15
-152 -8 -49 -15 -106 -15 -126 0 -24 -5 -39 -16 -43 -41 -16 -130 1 -146 27
-5 8 -26 6 -81 -7 -112 -28 -177 -10 -207 56 -54 118 3 195 160 218 126 18
163 39 125 70 -17 14 -102 7 -119 -10 -11 -11 -105 -14 -129 -4 -36 13 19 118
67 127 46 9 223 5 258 -6z m555 -63 c26 -9 62 -27 80 -41 33 -25 87 -109 78
-123 -8 -13 -88 -19 -128 -10 -21 4 -49 19 -63 33 -30 31 -63 38 -102 21 -47
-19 -62 -50 -62 -127 l0 -68 36 -15 c42 -18 73 -13 114 18 22 16 37 19 62 14
18 -3 51 -10 73 -14 35 -6 40 -11 43 -38 2 -25 -4 -37 -30 -59 -73 -62 -155
-78 -270 -54 -111 24 -191 84 -204 155 -9 48 0 149 19 202 16 45 48 77 106
104 48 22 184 23 248 2z m1463 -40 c27 -9 53 -21 58 -28 5 -6 14 -45 20 -86
18 -115 38 -230 55 -306 33 -144 50 -244 43 -251 -10 -11 -138 14 -148 29 -4
7 -13 32 -19 55 -6 23 -16 46 -23 51 -17 13 -163 34 -186 27 -11 -3 -23 -18
-27 -33 -10 -42 -30 -51 -108 -47 -38 2 -78 4 -87 4 -11 1 -18 9 -18 21 0 25
276 577 293 584 18 8 91 -2 147 -20z m4698 -9 c17 -6 16 -99 -1 -114 -16 -12
-145 -4 -164 12 -7 5 -13 29 -13 54 0 36 4 45 23 53 20 8 123 5 155 -5z
m-5564 -36 c97 -39 147 -127 138 -241 l-4 -48 -47 0 c-25 0 -73 7 -106 14 -95
22 -182 29 -190 16 -10 -16 14 -68 34 -74 9 -2 71 -4 138 -3 140 1 158 -6 133
-51 -39 -68 -125 -91 -257 -68 -111 20 -166 50 -206 116 -31 50 -31 185 1 251
27 56 47 75 108 100 66 26 176 21 258 -12z m5211 22 c3 -5 7 -36 9 -69 4 -71
10 -82 42 -82 49 0 64 -16 64 -70 l0 -50 -40 -6 c-52 -8 -60 -25 -60 -118 0
-83 9 -96 69 -96 l31 0 0 -59 c0 -33 -5 -63 -11 -66 -18 -12 -194 -8 -217 4
-30 16 -44 77 -46 200 l-2 103 -33 27 c-54 44 -54 141 0 141 13 0 20 11 26 43
8 39 12 44 73 74 70 34 86 38 95 24z m-2142 -73 c21 -11 24 -90 3 -107 -9 -7
-41 -11 -83 -9 l-68 3 -3 59 c-2 35 1 62 8 66 14 9 120 0 143 -12z m-1476 -14
l26 -7 -7 -121 c-6 -110 -28 -347 -42 -453 -8 -62 -27 -69 -120 -43 -57 15
-90 19 -142 14 -99 -9 -162 25 -196 108 -22 52 -31 164 -17 215 27 99 134 186
203 164 128 -40 125 -40 138 -15 8 15 10 41 6 78 -4 31 -4 61 0 67 7 12 92 7
151 -7z m3244 -92 c80 -41 87 -60 91 -272 l3 -175 -49 -3 c-29 -2 -67 3 -91
13 -39 15 -44 14 -86 -5 -52 -23 -163 -27 -212 -6 -54 22 -70 48 -71 115 -1
53 2 63 28 90 32 34 120 71 166 71 66 0 143 51 124 81 -10 16 -91 4 -139 -20
-48 -26 -143 -29 -151 -6 -3 8 -2 32 3 52 15 65 79 90 239 92 82 1 97 -2 145
-27z m739 11 c0 -10 3 -109 6 -221 4 -152 3 -206 -6 -217 -13 -16 -135 -21
-156 -7 -12 8 -28 420 -18 447 5 12 25 15 90 15 73 0 84 -2 84 -17z m422 5
c58 -17 123 -79 142 -135 21 -60 20 -156 -2 -213 -13 -34 -30 -53 -66 -77 -45
-31 -54 -33 -132 -33 -101 0 -138 13 -196 72 -92 93 -103 252 -23 337 49 51
189 76 277 49z m566 -10 c37 -31 55 -100 63 -248 4 -80 11 -156 15 -169 9 -30
-8 -41 -68 -41 -80 0 -78 -3 -78 136 0 133 -8 164 -48 190 -24 16 -26 16 -45
-7 -17 -22 -19 -37 -16 -164 l4 -140 -65 -3 c-36 -1 -71 2 -78 6 -9 6 -17 72
-27 223 -8 118 -15 217 -15 222 0 4 31 7 69 7 49 0 72 -4 81 -15 16 -19 34
-19 50 -1 20 25 129 28 158 4z m-2185 -6 c16 -17 16 -22 -1 -73 -17 -53 -18
-54 -60 -57 -67 -5 -77 -28 -77 -187 -1 -72 -4 -135 -8 -142 -5 -7 -37 -11
-90 -10 l-82 2 -8 90 c-4 50 -6 153 -5 230 l3 140 107 5 c58 3 110 8 114 13
15 15 91 7 107 -11z m-1913 -23 c20 -9 25 -69 8 -91 -19 -23 -132 -33 -152
-13 -20 21 -29 70 -17 94 9 17 21 19 78 19 38 -1 75 -4 83 -9z m-671 -95 c22
-9 52 -31 66 -50 31 -40 65 -44 124 -14 57 29 132 18 168 -24 48 -57 53 -83
53 -266 l0 -171 -81 3 c-102 4 -108 10 -90 102 16 82 7 197 -19 229 l-18 22
-29 -21 -28 -21 0 -148 0 -147 -40 7 c-22 3 -42 10 -45 15 -3 5 -2 70 2 145 6
100 5 142 -4 158 -11 21 -12 20 -24 -18 -7 -22 -13 -78 -14 -125 -1 -47 -5
-98 -9 -115 -6 -28 -8 -29 -56 -26 -93 5 -96 12 -71 174 8 50 17 139 20 197 3
58 5 106 6 108 1 8 56 0 89 -14z m673 -219 c-2 -88 -9 -191 -15 -230 l-12 -70
-70 0 -70 0 4 225 c2 124 5 229 8 233 3 4 39 7 81 5 l77 -3 -3 -160z m5520
-1110 c48 -20 119 -84 134 -122 18 -43 18 -132 -2 -207 -8 -34 -19 -77 -25
-97 -5 -20 -18 -46 -29 -59 -11 -13 -20 -29 -20 -36 0 -7 -6 -17 -12 -21 -14
-9 -27 -28 -59 -88 -35 -65 -58 -82 -129 -95 -36 -6 -76 -18 -88 -27 -22 -13
-29 -12 -93 14 -38 15 -67 33 -65 38 2 6 -3 21 -10 35 -7 14 -16 42 -19 63 -3
21 -13 41 -21 44 -7 3 -14 11 -14 19 0 14 -12 18 -37 15 -7 -1 -16 11 -19 25
-7 28 -7 28 -67 -37 -32 -35 -66 -74 -75 -87 -8 -13 -28 -30 -43 -38 -27 -13
-29 -13 -29 4 0 53 269 362 278 319 2 -10 -4 -29 -12 -42 -19 -29 -21 -27 26
-30 33 -2 36 0 20 11 -29 21 -7 26 37 8 23 -9 44 -15 46 -12 3 2 -8 20 -24 39
-26 31 -36 60 -32 95 1 16 92 128 159 197 93 96 135 110 224 72z m-8662 -630
c0 -12 -29 -3 -34 10 -4 13 -2 14 14 5 11 -6 20 -13 20 -15z m8258 -103 c2
-23 -1 -32 -12 -32 -21 0 -28 15 -20 45 9 34 28 26 32 -13z m-208 -162 c0 -5
-12 -10 -27 -10 -22 0 -25 2 -13 10 20 13 40 13 40 0z m-4533 -266 c-3 -3 -12
-4 -19 -1 -8 3 -5 6 6 6 11 1 17 -2 13 -5z m206 -61 c-7 -2 -19 -2 -25 0 -7 3
-2 5 12 5 14 0 19 -2 13 -5z m2602 -93 c-16 -4 -49 -10 -73 -13 -39 -5 -41 -4
-25 9 10 8 41 13 73 13 47 -1 50 -2 25 -9z m-9935 -854 c0 -3 -4 -8 -10 -11
-5 -3 -10 -1 -10 4 0 6 5 11 10 11 6 0 10 -2 10 -4z m50 -16 c-8 -5 -22 -9
-30 -9 -10 0 -8 3 5 9 27 12 43 12 25 0z m300 -130 c0 -5 -4 -10 -9 -10 -6 0
-13 5 -16 10 -3 6 1 10 9 10 9 0 16 -4 16 -10z m1180 -190 c0 -5 -7 -10 -15
-10 -8 0 -15 -4 -15 -10 0 -5 -18 -10 -40 -10 -46 0 -52 11 -12 27 35 14 82
16 82 3z m-239 -400 c27 -15 24 -30 -6 -30 -18 0 -25 5 -25 20 0 23 4 24 31
10z m2529 -385 c0 -8 -7 -15 -15 -15 -8 0 -15 7 -15 15 0 8 7 15 15 15 8 0 15
-7 15 -15z m17 -17 c-3 -7 -5 -2 -5 12 0 14 2 19 5 13 2 -7 2 -19 0 -25z
m6223 -273 c0 -8 -4 -15 -9 -15 -5 0 -11 7 -15 15 -3 9 0 15 9 15 8 0 15 -7
15 -15z m2413 -157 c34 -16 34 -24 0 -31 -34 -7 -93 12 -93 30 0 17 57 17 93
1z m-327 -70 l79 -3 -48 -22 c-27 -13 -64 -23 -83 -23 -19 0 -34 -4 -34 -10 0
-5 -18 -10 -40 -10 -33 0 -40 3 -40 20 0 17 -7 20 -40 20 -29 0 -40 4 -40 15
0 8 9 15 20 15 11 0 20 7 20 15 0 8 10 23 22 34 l21 21 42 -35 c39 -32 48 -34
121 -37z m-3924 -27 c4 -11 97 -21 104 -10 3 5 20 9 37 9 24 0 41 -9 65 -34
18 -19 32 -41 32 -49 0 -17 42 -47 65 -47 10 0 15 10 15 30 0 20 5 30 15 30 8
0 15 4 15 9 0 5 8 11 18 15 9 3 22 8 27 11 19 9 55 -34 55 -65 0 -20 5 -30 15
-30 8 0 15 -4 15 -8 0 -5 19 -15 43 -23 52 -17 269 -18 275 0 2 6 24 11 50 11
40 0 50 -5 79 -36 l33 -36 111 7 c61 4 123 14 138 21 14 8 39 14 54 14 23 0
60 15 97 38 2 2 -1 7 -9 11 -11 7 -11 12 0 30 18 27 23 26 47 -4 14 -17 30
-25 50 -25 17 0 33 -4 36 -9 3 -5 35 -12 70 -16 59 -6 67 -10 101 -48 l37 -41
152 3 c83 1 152 6 154 11 5 12 64 -10 85 -32 41 -42 108 -45 187 -10 23 10 71
16 145 17 61 1 138 8 172 15 59 12 66 11 135 -14 40 -15 76 -32 79 -38 11 -17
202 -31 449 -32 213 -1 228 -2 283 -25 41 -17 61 -21 66 -13 6 10 26 16 118
39 12 3 43 -2 69 -11 26 -9 60 -16 76 -16 15 0 28 -4 28 -10 0 -5 7 -10 15
-10 8 0 15 -6 15 -14 0 -14 31 -25 86 -31 13 -1 34 -11 45 -21 17 -16 37 -19
109 -19 78 0 91 3 112 23 14 12 30 22 36 22 7 0 12 3 12 8 0 4 10 13 21 21 18
11 32 11 80 0 33 -7 59 -18 59 -24 0 -13 94 -45 131 -45 13 0 40 -10 59 -21
33 -21 44 -21 203 -16 103 3 167 1 167 -5 0 -5 9 -7 19 -3 14 4 23 0 31 -15 9
-17 20 -20 72 -20 53 0 59 2 48 15 -11 13 -9 20 10 40 32 34 60 19 60 -34 0
-30 8 -47 34 -76 22 -23 39 -34 47 -30 7 5 10 4 5 -3 -3 -6 -2 -13 4 -17 13
-8 37 -62 45 -101 5 -26 2 -32 -22 -45 -15 -7 -32 -20 -36 -26 -4 -7 -19 -13
-32 -13 -13 0 -30 -7 -39 -15 -8 -8 -30 -15 -49 -15 -20 0 -37 -3 -39 -7 -1
-5 -19 -15 -38 -24 -34 -16 -37 -15 -91 10 -65 31 -109 64 -109 82 0 12 -21
26 -67 46 -9 4 -13 -6 -13 -34 0 -32 -7 -46 -40 -78 -21 -22 -39 -48 -40 -57
0 -14 -8 -18 -35 -18 -18 0 -38 -6 -42 -13 -13 -21 -82 -44 -158 -51 -114 -12
-115 -13 -115 -57 l0 -39 55 0 c42 0 55 3 55 15 0 11 11 15 40 15 29 0 40 -4
40 -15 0 -10 10 -15 33 -15 22 0 46 -12 76 -35 26 -21 47 -31 51 -25 4 6 13 5
26 -5 18 -14 18 -14 -8 -15 -26 0 -28 -3 -28 -38 0 -41 -8 -47 -115 -84 -41
-14 -56 -15 -82 -6 -21 8 -33 19 -33 30 0 11 -7 18 -20 18 -17 0 -20 7 -20 40
0 33 -3 40 -20 40 -16 0 -20 -7 -20 -35 0 -18 -6 -38 -12 -42 -7 -4 -21 -25
-30 -46 -10 -20 -22 -37 -28 -37 -5 0 -10 -9 -10 -20 0 -11 7 -20 15 -20 8 0
15 -8 15 -17 0 -36 -102 -59 -114 -27 -3 8 -10 12 -16 9 -5 -3 -10 3 -10 14 0
12 7 21 15 21 8 0 15 -9 15 -20 0 -11 6 -20 14 -20 9 0 12 7 9 20 -3 11 0 20
6 20 6 0 11 9 11 20 0 13 -7 20 -20 20 -11 0 -20 5 -20 10 0 6 -18 10 -39 10
-22 0 -43 4 -46 10 -4 6 -58 10 -129 10 -110 0 -125 -2 -141 -20 -10 -11 -24
-20 -32 -20 -7 0 -13 -8 -13 -18 0 -33 -65 -46 -199 -39 -100 6 -120 4 -125
-8 -5 -15 -47 -21 -60 -8 -12 12 -49 10 -75 -3 -14 -8 -31 -14 -37 -14 -36 0
-113 -33 -119 -50 -7 -23 -25 -27 -25 -6 0 11 -13 13 -60 9 -45 -4 -87 0 -160
18 -55 13 -100 27 -100 32 0 4 -24 7 -54 7 -30 0 -58 5 -61 10 -3 5 -15 10
-26 10 -10 0 -19 5 -19 10 0 6 -18 10 -40 10 -22 0 -40 -4 -40 -9 0 -17 -72 2
-98 25 -14 13 -33 24 -42 24 -10 0 -20 6 -23 14 -3 8 -20 17 -38 21 -17 4 -33
15 -36 24 -9 33 -68 51 -170 51 -53 0 -124 4 -157 10 -34 5 -82 12 -108 15
-30 4 -48 11 -48 20 0 7 -11 16 -25 19 -29 7 -24 26 6 26 31 0 22 18 -17 30
-29 10 -38 10 -44 0 -9 -15 -30 -5 -30 14 0 7 -23 27 -51 45 -47 29 -59 32
-138 33 -73 1 -81 3 -53 11 37 11 42 32 10 41 -42 11 -58 7 -58 -14 0 -24 -13
-26 -31 -4 -31 37 -122 60 -131 33 -6 -18 -78 11 -78 31 0 8 -9 21 -20 28 -27
16 -25 34 3 32 12 -1 37 -2 56 -1 32 1 33 2 18 24 -13 19 -22 22 -70 19 -42
-3 -60 1 -76 15 l-22 18 23 6 c13 3 -42 4 -122 2 -135 -3 -147 -2 -169 17 -22
19 -23 22 -7 38 21 24 22 102 1 102 -8 0 -15 9 -15 20 0 14 -7 20 -24 20 -13
0 -31 3 -40 6 -13 5 -16 -1 -16 -25 0 -25 -6 -34 -38 -50 -34 -17 -41 -18 -77
-5 -22 7 -41 14 -42 14 -2 0 -3 16 -3 35 0 34 -1 35 -40 35 -39 0 -40 -1 -40
-35 0 -34 -1 -35 -41 -35 l-40 0 2 60 c2 60 -5 79 -32 83 -8 2 -21 7 -29 12
-8 5 -21 10 -30 11 -8 1 -27 5 -42 9 -22 5 -28 4 -28 -8 0 -23 -69 1 -81 27
-12 29 -45 66 -58 66 -7 0 -15 8 -18 18 -9 24 -51 62 -69 62 -7 0 -14 5 -14
11 0 6 -11 20 -25 31 -14 11 -25 24 -25 29 0 5 11 9 25 9 34 0 31 10 -12 43
-54 41 -82 45 -104 16 -10 -13 -19 -32 -19 -41 0 -11 -8 -18 -20 -18 -11 0
-20 4 -20 8 0 5 -9 19 -20 32 -12 14 -20 38 -20 59 0 24 -3 31 -9 23 -7 -11
-10 -10 -15 3 -9 25 -7 35 8 35 7 0 16 14 20 30 5 26 10 30 40 30 19 0 36 -4
38 -9z m-320 -27 c37 -19 42 -31 25 -57 -12 -19 -22 -22 -58 -19 -24 3 -46 7
-49 11 -3 3 -18 12 -34 19 l-28 13 23 19 c13 11 29 24 34 29 11 11 48 4 87
-15z m6558 -249 c0 -9 -9 -15 -21 -15 -18 0 -19 2 -9 15 7 8 16 15 21 15 5 0
9 -7 9 -15z m230 0 c0 -8 -7 -15 -16 -15 -14 0 -14 3 -4 15 7 8 14 15 16 15 2
0 4 -7 4 -15z m-390 -120 c0 -22 -4 -25 -40 -25 -36 0 -40 3 -40 25 0 23 4 25
40 25 36 0 40 -2 40 -25z m-5754 -330 c19 -19 14 -19 -22 0 -21 11 -24 15 -11
15 10 0 25 -7 33 -15z m749 -115 c16 -7 11 -9 -20 -9 -29 -1 -36 2 -25 9 17
11 19 11 45 0z m-3069 -236 c-23 -16 -35 -17 -56 -4 -13 9 -13 11 0 20 8 5 23
7 33 4 10 -3 17 0 17 7 0 11 2 11 13 0 10 -10 8 -15 -7 -27z m7585 -24 c16 0
9 -19 -11 -30 -25 -13 -60 -4 -60 15 0 15 27 25 48 19 8 -2 18 -4 23 -4z m322
-117 c-7 -2 -19 -2 -25 0 -7 3 -2 5 12 5 14 0 19 -2 13 -5z m-3069 -208 c-3
-8 -14 -17 -25 -20 -10 -4 -19 -11 -19 -16 0 -5 -12 -9 -26 -9 l-26 0 24 29
c25 32 83 45 72 16z m916 7 c0 -4 17 -14 37 -21 53 -20 83 -53 83 -95 0 -30
-4 -35 -27 -40 -36 -7 -104 -7 -175 0 l-58 6 0 39 c0 21 3 39 8 39 4 0 18 10
32 23 52 47 100 70 100 49z m160 -162 c0 -5 -2 -10 -4 -10 -3 0 -8 5 -11 10
-3 6 -1 10 4 10 6 0 11 -4 11 -10z m-476 -56 c3 -8 2 -12 -4 -9 -6 3 -10 10
-10 16 0 14 7 11 14 -7z"/>
<path d="M13623 19710 c-34 -8 -65 -18 -69 -22 -4 -5 -15 -8 -24 -8 -10 0 -47
-15 -84 -34 -57 -30 -79 -35 -168 -40 -130 -9 -246 -31 -325 -62 -41 -16 -92
-26 -155 -30 -105 -8 -165 -30 -214 -78 -17 -17 -44 -39 -60 -48 -28 -16 -36
-25 -48 -58 -18 -46 -65 -105 -84 -108 -16 -2 -22 -10 -22 -27 0 -26 21 -46
28 -27 7 21 42 14 42 -8 0 -12 -7 -20 -16 -20 -27 0 -46 -27 -34 -49 5 -11 10
-49 10 -86 0 -52 -4 -70 -20 -87 -11 -12 -20 -29 -20 -38 0 -9 -5 -21 -12 -28
-9 -9 -9 -24 2 -64 7 -29 16 -60 20 -68 4 -8 12 -26 18 -40 5 -14 15 -38 22
-55 14 -36 47 -218 60 -334 5 -46 13 -87 17 -90 16 -11 73 -108 73 -124 0 -9
4 -18 8 -21 4 -2 24 -44 42 -91 34 -85 99 -172 109 -144 10 32 81 75 81 49 0
-5 12 -10 26 -10 14 0 23 4 19 9 -3 5 4 12 15 16 27 9 25 25 -2 25 -17 0 -19
3 -9 9 10 6 10 13 2 29 -13 24 -9 61 13 122 8 25 16 55 16 66 0 12 7 24 15 28
20 7 19 53 -1 112 -8 25 -13 52 -10 60 7 18 59 18 99 0 18 -8 44 -17 59 -20
15 -3 34 -13 43 -22 8 -9 22 -13 30 -10 8 3 40 -4 71 -14 105 -37 373 -47 482
-18 23 6 61 8 84 5 34 -5 53 1 108 29 37 19 75 34 85 34 10 0 49 9 87 21 42
12 77 17 91 13 12 -4 42 -7 67 -7 25 1 55 -5 67 -13 12 -8 31 -14 43 -14 11 0
20 -4 20 -9 0 -5 21 -12 48 -15 86 -12 140 -27 146 -42 6 -16 71 -20 81 -5 3
5 10 45 15 88 6 43 15 80 20 81 15 5 12 62 -3 62 -7 0 -19 16 -26 36 -7 19
-19 38 -27 41 -8 3 -14 19 -14 41 0 67 -41 163 -88 210 -24 23 -42 48 -39 55
3 8 -2 31 -12 52 -14 32 -15 51 -7 118 6 56 6 89 -2 111 -7 18 -12 46 -12 64
0 17 -4 34 -10 37 -5 3 -10 14 -10 23 0 10 -9 35 -20 57 -11 22 -20 44 -20 51
0 15 -64 64 -84 64 -9 0 -16 7 -16 15 0 8 -9 20 -20 27 -11 7 -20 18 -20 24 0
14 -29 28 -48 25 -14 -2 -56 22 -80 45 -7 7 -34 30 -60 51 -26 21 -54 46 -62
55 -30 35 -66 46 -124 37 -29 -5 -73 -5 -97 -1 -30 5 -64 3 -106 -8z m-150
-780 c-14 -6 -32 -6 -45 0 -19 7 -15 9 22 9 37 0 41 -2 23 -9z m-303 -250 c0
-5 -4 -10 -10 -10 -5 0 -10 5 -10 10 0 6 5 10 10 10 6 0 10 -4 10 -10z m650
-181 c0 -12 -47 -12 -55 0 -6 11 23 20 43 13 6 -2 12 -8 12 -13z m-1057 -361
c8 -28 4 -32 -22 -23 -27 8 -28 45 -2 45 11 0 21 -9 24 -22z"/>
<path d="M10365 19522 c-22 -9 -54 -30 -71 -47 -36 -34 -44 -40 -99 -76 -85
-55 -121 -76 -153 -88 -18 -8 -36 -19 -40 -26 -4 -7 -24 -32 -45 -55 -38 -40
-39 -43 -39 -119 0 -66 3 -83 22 -109 l23 -31 -22 -36 c-21 -36 -21 -38 -4
-86 13 -35 23 -49 37 -49 29 0 45 -28 32 -56 -6 -13 -18 -24 -26 -24 -26 0
-71 -50 -97 -106 -13 -30 -29 -56 -34 -59 -14 -9 -10 -47 6 -69 8 -11 15 -32
15 -46 0 -36 19 -89 44 -122 14 -21 28 -28 52 -28 18 0 34 4 36 9 2 5 45 3 98
-5 52 -7 113 -14 135 -14 22 0 60 -9 84 -20 25 -12 87 -25 145 -31 56 -6 106
-15 111 -19 11 -9 176 -16 300 -12 44 1 109 10 145 21 36 10 92 24 125 31 33
8 79 22 103 32 45 18 165 96 170 110 2 4 14 8 26 8 12 0 28 6 34 12 10 10 17
10 32 0 11 -6 28 -12 38 -12 22 0 58 -32 67 -59 3 -10 12 -22 21 -25 8 -3 19
-17 24 -31 13 -33 27 -32 48 5 9 16 23 30 29 30 7 0 22 8 34 18 23 18 109 146
109 161 0 5 6 14 14 20 9 7 17 42 21 89 4 42 11 82 15 87 17 23 20 63 5 75 -8
7 -15 19 -15 26 0 8 -8 22 -17 32 -54 57 -55 61 -48 136 7 67 35 143 59 158 8
5 7 11 -2 20 -6 6 -12 20 -12 31 0 22 -102 127 -124 127 -9 0 -16 -4 -16 -10
0 -34 -79 13 -80 47 0 7 -6 16 -13 20 -8 4 -16 15 -19 24 -7 18 -35 25 -140
35 -38 4 -68 11 -68 16 0 6 -7 7 -15 4 -9 -3 -35 1 -58 9 -23 8 -55 15 -70 15
-16 0 -37 5 -47 10 -11 6 -97 13 -192 17 -128 4 -175 9 -183 19 -8 11 -61 15
-225 19 -118 3 -222 7 -230 9 -8 2 -33 -3 -55 -12z m285 -462 c12 -8 8 -10
-15 -11 -17 -1 -22 -3 -12 -6 24 -6 22 -43 -3 -43 -11 0 -20 -5 -20 -10 0 -19
-31 -23 -43 -6 -10 14 -46 23 -104 25 -7 1 -12 7 -10 14 1 6 -4 11 -11 9 -8
-1 -11 2 -8 7 3 5 37 7 74 5 49 -4 76 -1 97 10 35 19 36 19 55 6z m-257 -7
c-7 -2 -19 -2 -25 0 -7 3 -2 5 12 5 14 0 19 -2 13 -5z m627 -221 c20 -7 10
-10 -55 -16 -44 -4 -117 -14 -163 -23 -46 -8 -85 -13 -88 -10 -7 7 64 40 116
54 48 13 149 10 190 -5z m-83 -323 c48 -18 7 -29 -113 -29 -88 0 -124 -5 -179
-23 -38 -13 -62 -26 -54 -29 8 -3 88 -1 178 4 163 9 191 7 191 -10 0 -19 -183
-54 -277 -53 -101 1 -123 6 -123 27 0 10 -15 14 -61 14 -37 0 -58 4 -54 10 3
6 19 10 36 10 17 0 29 5 29 13 0 43 346 97 427 66z m-932 -179 c3 -5 -1 -10
-9 -10 -9 0 -16 5 -16 10 0 6 4 10 9 10 6 0 13 -4 16 -10z"/>
<path d="M11595 17959 l0 -39 42 0 c24 0 43 2 43 4 0 2 -19 19 -43 39 l-42 35
0 -39z"/>
<path d="M11600 17894 c0 -8 5 -12 10 -9 6 4 8 11 5 16 -9 14 -15 11 -15 -7z"/>
<path d="M13263 17623 c-32 -12 3 -72 38 -65 11 2 15 10 11 28 -5 26 -29 44
-49 37z"/>
<path d="M10020 16760 c0 -33 -3 -40 -20 -40 -17 0 -20 -7 -20 -40 0 -22 -4
-40 -10 -40 -6 0 -10 -34 -10 -81 0 -77 1 -82 30 -107 17 -15 30 -32 30 -39 0
-7 4 -13 9 -13 5 0 12 -19 16 -42 10 -68 36 -118 62 -118 30 0 43 26 32 64 -5
17 -8 64 -7 104 3 69 1 75 -24 97 -16 13 -28 28 -28 33 0 6 -7 12 -15 16 -11
4 -15 21 -15 64 0 85 -11 182 -21 182 -5 0 -9 -18 -9 -40z m-23 -182 c-2 -13
-4 -3 -4 22 0 25 2 35 4 23 2 -13 2 -33 0 -45z"/>
<path d="M11660 16225 c-19 -23 14 -55 56 -55 l33 0 -20 35 c-22 37 -48 45
-69 20z"/>
<path d="M11873 16210 c-39 -35 -41 -45 -11 -47 13 -1 24 -7 26 -13 4 -12 79
-14 86 -1 8 12 -44 91 -58 91 -6 0 -26 -14 -43 -30z"/>
<path d="M9881 16204 c0 -11 3 -14 6 -6 3 7 2 16 -1 19 -3 4 -6 -2 -5 -13z"/>
<path d="M12258 16181 c-13 -11 -41 -22 -61 -26 -20 -4 -37 -10 -37 -14 0 -7
111 -31 142 -31 8 0 22 6 33 13 17 13 17 15 -5 45 -28 37 -38 39 -72 13z"/>
<path d="M10181 16130 c-1 -82 38 -174 60 -139 5 8 9 19 9 24 0 6 -4 3 -10 -5
-13 -21 -23 -5 -11 18 15 29 14 52 -4 52 -8 0 -15 6 -15 13 -1 6 -7 26 -15 42
l-13 30 -1 -35z"/>
<path d="M13023 15993 c-28 -5 -29 -19 -3 -35 12 -8 20 -24 20 -40 0 -23 4
-28 24 -28 16 0 27 7 31 20 3 11 11 20 16 20 5 0 9 16 9 35 0 34 -1 35 -37 34
-21 -1 -48 -4 -60 -6z"/>
<path d="M10132 15903 c5 -25 28 -28 28 -4 0 12 -6 21 -16 21 -9 0 -14 -7 -12
-17z"/>
<path d="M12800 15890 c0 -17 7 -20 44 -20 46 0 69 16 45 31 -8 5 -31 9 -51 9
-31 0 -38 -4 -38 -20z"/>
<path d="M12720 15830 c0 -8 -51 -27 -120 -45 -62 -16 -304 -34 -349 -25 -26
5 -82 6 -124 3 -66 -5 -77 -9 -83 -26 -5 -15 0 -26 17 -40 13 -11 23 -22 21
-25 -2 -4 5 -9 15 -13 17 -7 17 -8 1 -8 -20 -1 -25 -21 -5 -21 6 -1 -10 -10
-37 -20 -27 -11 -51 -18 -55 -18 -20 5 -124 -28 -138 -44 -26 -29 -20 -84 12
-113 14 -14 30 -25 35 -25 4 0 10 -6 12 -12 3 -9 35 -14 107 -15 74 -1 108 -6
119 -16 10 -8 52 -23 95 -33 73 -17 79 -17 112 -1 20 9 54 17 76 17 27 0 51 8
72 24 48 35 80 39 132 16 27 -12 65 -20 100 -20 76 0 101 27 110 121 9 86 -3
105 -70 119 -27 6 -63 19 -78 29 l-29 19 64 30 c56 28 105 72 78 72 -5 0 -10
11 -10 25 0 14 -6 25 -12 25 -7 0 -25 7 -40 14 -16 8 -28 11 -28 6z"/>
<path d="M13440 15561 c0 -7 -4 -10 -9 -7 -14 9 -85 -24 -75 -34 16 -16 83 1
90 22 3 11 3 22 0 25 -3 4 -6 1 -6 -6z"/>
<path d="M12510 11135 c13 -16 50 -21 50 -6 0 10 -24 21 -47 21 -13 0 -13 -3
-3 -15z"/>
<path d="M7568 8679 c-11 -6 -18 -22 -18 -39 0 -30 0 -30 60 -30 56 0 60 2 75
30 9 17 13 35 10 40 -8 13 -105 12 -127 -1z"/>
<path d="M8736 8658 c-8 -13 -17 -51 -21 -85 -6 -54 -4 -64 14 -82 21 -21 75
-28 97 -13 19 12 42 65 49 114 6 39 4 49 -14 67 -30 30 -105 30 -125 -1z"/>
<path d="M9898 8401 c-63 -9 -76 -22 -55 -55 14 -21 23 -24 58 -21 23 3 48 10
55 16 18 14 19 69 2 68 -7 -1 -34 -5 -60 -8z"/>
<path d="M11031 8348 l-23 -51 23 -18 c30 -22 53 -29 69 -19 10 6 9 22 -5 74
-10 36 -23 66 -29 66 -6 0 -22 -23 -35 -52z"/>
<path d="M16230 8262 c-28 -14 -35 -23 -35 -47 0 -29 2 -30 42 -28 62 3 83 17
83 58 0 31 -3 35 -27 35 -16 0 -44 -8 -63 -18z"/>
<path d="M13148 8164 c-54 -17 -64 -43 -25 -69 18 -11 31 -12 59 -5 43 12 61
31 56 62 -4 29 -27 32 -90 12z"/>
<path d="M11531 8231 c-12 -12 -21 -34 -21 -52 0 -28 2 -30 28 -25 15 3 44 8
65 12 25 4 37 11 37 23 -1 49 -73 78 -109 42z"/>
<path d="M12219 8138 c-28 -30 -30 -37 -25 -77 3 -24 6 -54 6 -67 0 -25 53
-64 88 -64 26 0 60 42 68 86 8 43 -19 118 -49 139 -32 23 -54 18 -88 -17z"/>
<path d="M8210 7460 c-18 -18 -20 -31 -18 -103 l3 -82 32 -3 c59 -6 104 71 89
153 -11 55 -68 73 -106 35z"/>
<path d="M8761 7289 c-57 -11 -76 -29 -67 -63 5 -22 12 -26 44 -26 61 0 118
54 91 86 -6 8 -14 14 -18 13 -3 -1 -26 -5 -50 -10z"/>
<path d="M10831 7200 c-12 -28 -23 -67 -24 -87 l-2 -36 53 -1 54 -1 -7 64
c-13 123 -38 144 -74 61z"/>
<path d="M9891 7306 c-13 -13 -21 -32 -19 -43 3 -15 15 -18 81 -21 89 -3 98 8
48 59 -37 36 -79 38 -110 5z"/>
<path d="M11370 7062 c-31 -15 -36 -23 -44 -70 -10 -60 1 -92 39 -112 34 -18
70 -5 95 35 29 47 21 115 -17 145 -31 24 -30 24 -73 2z"/>
<path d="M14718 6994 c-39 -17 -53 -41 -43 -74 8 -25 52 -27 94 -2 34 19 46
42 36 72 -8 24 -35 25 -87 4z"/>
<path d="M15950 7153 c-28 -10 -40 -37 -40 -92 0 -78 7 -96 43 -116 71 -38
117 -4 117 88 0 93 -52 145 -120 120z"/>
<path d="M14871 1554 c0 -11 3 -14 6 -6 3 7 2 16 -1 19 -3 4 -6 -2 -5 -13z"/>
<path d="M14750 1505 c0 -8 4 -15 9 -15 5 0 11 7 15 15 3 9 0 15 -9 15 -8 0
-15 -7 -15 -15z"/>
<path d="M19250 1320 c0 -36 -2 -40 -25 -40 -18 0 -25 -5 -25 -20 0 -17 7 -20
39 -20 46 0 55 14 45 77 -8 57 -34 59 -34 3z"/>
<path d="M17213 663 c-9 -3 -13 -27 -13 -69 0 -61 1 -64 24 -64 13 0 31 -3 40
-6 12 -4 16 0 16 15 0 12 6 21 15 21 11 0 15 11 15 40 0 29 -4 40 -15 40 -8 0
-15 7 -15 15 0 15 -39 20 -67 8z"/>
<path d="M14991 17748 c0 -16 2 -18 6 -8 3 8 11 18 17 22 7 5 4 8 -6 8 -12 0
-18 -7 -17 -22z"/>
<path d="M15101 17314 c0 -11 3 -14 6 -6 3 7 2 16 -1 19 -3 4 -6 -2 -5 -13z"/>
<path d="M15072 17300 c0 -14 2 -19 5 -12 2 6 2 18 0 25 -3 6 -5 1 -5 -13z"/>
<path d="M9135 16550 c-4 -6 6 -28 21 -48 53 -72 82 -81 82 -26 0 30 -6 39
-39 60 -43 27 -55 29 -64 14z"/>
<path d="M9902 14300 c0 -14 2 -19 5 -12 2 6 2 18 0 25 -3 6 -5 1 -5 -13z"/>
<path d="M12661 7011 c-21 -21 -39 -161 -26 -201 7 -22 7 -22 31 6 49 59 69
147 44 195 -13 24 -25 24 -49 0z"/>
<path d="M21840 5720 c0 -5 7 -10 16 -10 8 0 12 5 9 10 -3 6 -10 10 -16 10 -5
0 -9 -4 -9 -10z"/>
<path d="M20221 5521 c-10 -6 1 -8 30 -4 24 3 46 7 48 9 10 9 -65 3 -78 -5z"/>
<path d="M20780 5513 c0 -5 5 -15 10 -23 8 -12 10 -11 10 8 0 12 -4 22 -10 22
-5 0 -10 -3 -10 -7z"/>
<path d="M12488 4673 c7 -3 16 -2 19 1 4 3 -2 6 -13 5 -11 0 -14 -3 -6 -6z"/>
<path d="M12463 4632 c1 -12 8 -19 21 -18 19 1 37 26 18 26 -6 0 -17 3 -26 6
-10 4 -14 0 -13 -14z"/>
<path d="M16980 4502 c-21 -7 -40 -28 -33 -36 13 -13 93 -6 93 7 0 17 -40 36
-60 29z"/>
<path d="M13378 4483 c12 -2 32 -2 45 0 12 2 2 4 -23 4 -25 0 -35 -2 -22 -4z"/>
<path d="M16720 4470 c0 -13 11 -13 30 0 12 8 11 10 -7 10 -13 0 -23 -4 -23
-10z"/>
<path d="M14670 4290 c0 -5 7 -10 15 -10 8 0 15 5 15 10 0 6 -7 10 -15 10 -8
0 -15 -4 -15 -10z"/>
<path d="M15614 4254 c-15 -22 -15 -27 -3 -35 22 -14 37 -11 49 12 9 15 8 24
-1 35 -16 20 -26 18 -45 -12z"/>
<path d="M21840 4229 c0 -5 5 -7 10 -4 6 3 10 8 10 11 0 2 -4 4 -10 4 -5 0
-10 -5 -10 -11z"/>
<path d="M10090 3915 c-5 -14 -10 -58 -10 -96 0 -81 -2 -80 103 -45 40 13 108
27 152 30 44 3 102 13 129 21 78 24 138 19 204 -14 53 -28 181 -70 228 -75 11
-1 25 -6 32 -10 14 -8 32 0 32 16 0 6 12 37 26 69 l27 59 -24 19 c-19 15 -28
17 -49 8 -39 -16 -340 -21 -500 -8 -129 11 -293 35 -327 48 -7 3 -17 -7 -23
-22z"/>
<path d="M10433 3300 c-40 -24 -40 -28 -6 -41 36 -14 81 -2 89 23 12 39 -33
49 -83 18z"/>
<path d="M11520 3210 c0 -5 5 -10 11 -10 5 0 7 5 4 10 -3 6 -8 10 -11 10 -2 0
-4 -4 -4 -10z"/>
<path d="M10390 3106 c0 -8 9 -24 20 -37 l19 -24 1 26 c0 24 -16 49 -32 49 -4
0 -8 -6 -8 -14z"/>
<path d="M10316 2954 c-6 -16 22 -74 36 -74 11 0 10 48 -2 71 -13 23 -26 24
-34 3z"/>
<path d="M10902 2927 c-23 -24 -29 -61 -12 -72 18 -11 10 -44 -17 -75 -27 -29
-32 -30 -110 -31 -59 -1 -80 -4 -77 -13 8 -22 58 -44 114 -51 52 -6 57 -5 102
29 34 26 51 48 59 76 7 22 22 49 35 61 l23 21 -26 39 c-30 45 -59 50 -91 16z"/>
<path d="M14190 2829 c0 -5 5 -7 10 -4 6 3 10 8 10 11 0 2 -4 4 -10 4 -5 0
-10 -5 -10 -11z"/>
<path d="M10206 2751 c-7 -11 119 -25 135 -16 21 13 -13 25 -73 25 -31 0 -59
-4 -62 -9z"/>
<path d="M11055 2644 c-42 -41 -38 -61 8 -38 36 19 47 31 47 57 0 26 -16 21
-55 -19z"/>
<path d="M9955 2659 c-4 -6 -1 -15 6 -20 21 -13 31 -11 27 8 -4 20 -24 28 -33
12z"/>
<path d="M10380 2570 c-12 -8 -10 -10 8 -10 13 0 20 4 17 10 -7 12 -6 12 -25
0z"/>
<path d="M15680 2513 c0 -23 5 -33 15 -33 19 0 19 21 0 46 -14 18 -14 17 -15
-13z"/>
<path d="M9730 2438 c0 -8 7 -23 15 -34 14 -19 14 -19 15 2 0 12 -7 27 -15 34
-12 10 -15 10 -15 -2z"/>
<path d="M21760 2390 c0 -35 10 -38 35 -10 10 11 24 20 32 20 7 0 13 5 13 10
0 6 -18 10 -40 10 -38 0 -40 -2 -40 -30z"/>
<path d="M16760 2358 c-11 -20 -26 -38 -32 -40 -7 -3 -3 -16 13 -38 15 -21 20
-34 12 -37 -8 -3 -6 -15 5 -43 43 -103 101 1 93 167 -1 31 -3 33 -36 30 -28
-2 -38 -9 -55 -39z"/>
<path d="M21600 2330 c0 -5 18 -10 40 -10 l40 0 0 -40 0 -40 -40 0 c-22 0 -40
5 -40 10 0 6 -18 10 -40 10 -22 0 -40 -4 -40 -10 0 -5 18 -10 40 -10 l40 0 0
-40 0 -40 40 0 c34 0 40 3 40 21 0 20 4 21 52 17 74 -8 108 6 108 43 0 24 -5
30 -40 40 -22 7 -40 18 -40 26 0 9 -13 13 -40 13 -22 0 -40 5 -40 10 0 6 -18
10 -40 10 -22 0 -40 -4 -40 -10z"/>
<path d="M17112 2254 c-7 -8 -26 -14 -43 -14 -17 0 -29 -3 -27 -7 3 -5 11 -23
18 -40 13 -29 19 -33 52 -33 l38 0 0 44 c0 49 -17 72 -38 50z"/>
<path d="M19298 2163 c12 -2 32 -2 45 0 12 2 2 4 -23 4 -25 0 -35 -2 -22 -4z"/>
<path d="M21440 2150 c0 -5 18 -10 40 -10 22 0 40 5 40 10 0 6 -18 10 -40 10
-22 0 -40 -4 -40 -10z"/>
<path d="M21420 2110 c-9 -6 -10 -10 -3 -10 6 0 15 5 18 10 8 12 4 12 -15 0z"/>
<path d="M6135 1800 c-9 -15 -4 -19 26 -22 16 -2 24 2 24 12 0 18 -40 26 -50
10z"/>
<path d="M6358 1776 c-15 -8 -40 -16 -55 -18 l-27 -3 26 -28 c24 -25 72 -47
105 -47 8 0 13 14 13 39 0 72 -12 83 -62 57z"/>
<path d="M20868 1693 c7 -3 16 -2 19 1 4 3 -2 6 -13 5 -11 0 -14 -3 -6 -6z"/>
<path d="M8910 1617 c-19 -7 -34 -15 -32 -19 1 -5 2 -16 2 -27 0 -14 10 -20
40 -25 22 -3 40 -10 40 -15 0 -5 18 -4 40 1 54 14 56 44 4 54 -24 4 -38 13
-41 25 -6 22 -6 22 -53 6z"/>
<path d="M20560 1610 c0 -5 5 -10 11 -10 5 0 7 5 4 10 -3 6 -8 10 -11 10 -2 0
-4 -4 -4 -10z"/>
<path d="M6560 1576 c0 -9 5 -16 10 -16 6 0 10 4 10 9 0 6 -4 13 -10 16 -5 3
-10 -1 -10 -9z"/>
<path d="M6250 1570 c-12 -8 -12 -10 2 -15 20 -8 41 2 33 16 -8 11 -16 11 -35
-1z"/>
<path d="M9627 1033 c-16 -15 -5 -33 19 -33 20 0 25 4 20 16 -3 9 -6 18 -6 20
0 7 -26 5 -33 -3z"/>
<path d="M12000 704 c0 -14 3 -14 15 -4 8 7 15 14 15 16 0 2 -7 4 -15 4 -8 0
-15 -7 -15 -16z"/>
<path d="M11321 623 c-1 -47 10 -61 30 -37 12 15 15 9 26 -42 16 -78 15 -150
-2 -199 -8 -22 -15 -52 -15 -67 0 -15 -4 -30 -10 -33 -6 -3 -7 1 -4 9 3 9 4
16 1 16 -8 0 -47 -89 -47 -109 0 -10 -6 -24 -14 -30 -11 -9 -18 -5 -36 24 -12
19 -26 35 -31 35 -5 0 -14 11 -19 25 -5 14 -16 25 -23 25 -18 0 -49 -34 -40
-44 4 -4 1 -11 -7 -17 -13 -8 -13 -10 0 -18 12 -8 13 -17 2 -56 -7 -25 -12
-59 -12 -75 l0 -30 145 0 144 0 4 83 3 82 2 -82 2 -83 505 0 c327 0 505 3 505
10 0 5 -9 15 -21 22 -11 7 -30 29 -42 48 -11 19 -27 39 -34 43 -7 4 -13 15
-13 22 0 8 -9 15 -20 15 -16 0 -20 7 -20 38 0 21 -9 48 -20 62 -11 14 -20 33
-20 43 0 10 -8 17 -20 17 -17 0 -20 -7 -20 -38 l0 -39 -75 -1 c-63 -2 -78 -5
-97 -24 -21 -21 -23 -21 -26 -4 -9 42 -77 104 -120 108 -66 5 -122 -3 -122
-18 0 -8 -7 -26 -16 -39 -16 -25 -16 -25 15 -25 30 0 31 -1 19 -22 -10 -20
-13 -21 -16 -6 -5 24 -82 26 -82 3 0 -12 -14 -15 -70 -15 -59 0 -72 3 -82 20
-7 11 -18 20 -24 20 -13 0 -44 91 -44 131 0 16 -3 29 -7 29 -5 0 -9 17 -10 38
-4 68 -14 122 -23 122 -4 0 -11 18 -15 40 -5 30 -11 40 -26 40 -10 0 -19 -4
-19 -10 0 -18 -17 -10 -28 13 -10 20 -11 18 -11 -20z"/>
<path d="M5800 551 c0 -5 -9 -13 -20 -16 -13 -4 -20 -15 -20 -31 0 -15 -6 -24
-16 -24 -8 0 -22 -7 -30 -15 -9 -8 -20 -15 -25 -15 -5 0 -9 7 -9 15 0 11 -11
15 -40 15 -29 0 -40 -4 -40 -15 0 -11 -11 -15 -40 -15 -23 0 -40 5 -40 11 0 6
-7 8 -16 5 -45 -17 -64 -18 -64 -2 0 12 -10 16 -40 16 -22 0 -40 4 -40 9 0 13
-109 21 -135 9 l-23 -10 34 -30 c33 -29 36 -30 79 -19 24 6 62 11 84 11 40 0
41 -1 41 -34 0 -22 -6 -36 -16 -40 -30 -12 -102 -6 -118 9 -8 8 -25 15 -38 14
-13 0 -17 -3 -10 -6 23 -9 12 -21 -32 -32 -54 -13 -106 -14 -139 -2 -16 6 -62
5 -133 -5 -107 -14 -234 -10 -234 7 0 5 -22 9 -48 9 -44 0 -52 -4 -100 -50
-29 -27 -52 -56 -52 -65 0 -11 -11 -15 -45 -15 -27 0 -45 -5 -45 -11 0 -7 -7
-17 -15 -23 -10 -7 -18 -34 -22 -69 -4 -38 -10 -57 -19 -57 -10 0 -14 -13 -14
-40 l0 -40 2663 0 2663 0 -4 40 c-4 39 -5 40 -43 40 -38 0 -39 -1 -39 -35 0
-34 -1 -35 -40 -35 -39 0 -40 1 -40 34 l0 33 -61 7 c-34 3 -88 6 -120 6 l-59
0 0 35 c0 19 -4 35 -10 35 -5 0 -19 18 -30 40 -19 38 -23 40 -68 41 -26 1 -55
0 -65 -1 -26 -2 -69 -46 -67 -67 5 -47 1 -53 -40 -53 -30 0 -40 4 -40 16 0 8
-6 22 -14 30 -8 7 -16 19 -19 26 -2 9 -14 2 -34 -18 -35 -39 -93 -57 -131 -43
-15 6 -51 9 -81 8 -55 -3 -55 -2 -87 42 -18 24 -33 50 -33 57 -1 11 49 18 101
14 9 -1 21 5 28 13 15 19 -4 55 -30 55 -10 0 -20 5 -22 12 -3 9 -6 9 -12 0 -4
-7 -2 -12 3 -12 6 0 11 -4 11 -8 0 -5 -21 -5 -47 -1 -74 12 -73 13 -73 -31 0
-38 -2 -40 -29 -40 -28 0 -30 -2 -37 -58 -4 -31 -8 -74 -8 -94 -1 -45 -4 -42
-27 22 -11 30 -13 50 -7 50 12 0 3 59 -11 73 -5 5 -63 8 -129 8 -109 -1 -124
1 -156 21 -19 13 -35 31 -36 41 0 25 -80 25 -80 -1 0 -11 -17 -25 -49 -40 -27
-12 -52 -22 -56 -22 -3 0 -13 -7 -21 -15 -19 -19 -34 -19 -34 -1 0 9 -21 15
-70 20 -38 4 -74 4 -80 1 -5 -3 -10 -2 -10 3 0 5 -13 15 -30 22 -23 10 -29 18
-27 38 1 14 -4 27 -12 30 -7 2 -28 17 -46 33 -40 35 -92 38 -150 9 -54 -27
-138 -27 -165 0 -24 24 -50 26 -50 5 0 -19 -10 -19 -38 1 -12 8 -22 12 -22 7
0 -4 -5 -1 -10 7 -5 8 -10 10 -10 4 0 -8 -13 -10 -36 -7 -20 3 -39 1 -43 -5
-3 -5 -49 -11 -101 -14 -56 -3 -104 -11 -118 -19 -18 -11 -26 -11 -42 -1 -11
6 -27 12 -36 12 -8 0 -22 7 -30 15 -9 8 -34 15 -57 16 -55 1 -83 6 -134 26
-55 20 -183 14 -208 -10 -17 -17 -27 -19 -100 -19 -85 -1 -105 3 -122 21 -10
10 -43 29 -73 42 -30 13 -57 26 -60 29 -12 16 -51 30 -84 30 -29 0 -36 4 -36
20 0 13 -7 20 -20 20 -11 0 -20 -4 -20 -9z m3640 -491 c0 -17 -7 -20 -40 -20
-28 0 -40 4 -40 14 0 10 -14 16 -42 19 -24 2 -6 4 40 5 76 2 82 1 82 -18z"/>
<path d="M12276 534 c-10 -27 -7 -43 16 -66 28 -28 58 -31 58 -6 0 10 -7 18
-15 18 -8 0 -21 16 -29 35 -17 39 -21 42 -30 19z"/>
<path d="M12077 421 c-6 -26 0 -31 40 -31 43 0 44 24 2 39 -18 6 -33 11 -34
11 -2 0 -5 -9 -8 -19z"/>
<path d="M18183 363 c9 -2 23 -2 30 0 6 3 -1 5 -18 5 -16 0 -22 -2 -12 -5z"/>
<path d="M12160 340 c0 -11 7 -20 15 -20 13 0 14 4 5 20 -6 11 -13 20 -15 20
-3 0 -5 -9 -5 -20z"/>
<path d="M8340 335 c-24 -14 -23 -14 26 -15 28 0 67 -2 85 -5 32 -5 31 -4 -11
14 -54 24 -67 25 -100 6z"/>
<path d="M12392 325 c-7 -8 -9 -15 -4 -15 4 0 16 -16 25 -35 23 -48 54 -47 48
2 -2 11 -47 64 -54 63 -1 -1 -8 -7 -15 -15z"/>
<path d="M8923 280 c0 -25 2 -35 4 -22 2 12 2 32 0 45 -2 12 -4 2 -4 -23z"/>
<path d="M14618 269 c-24 -13 -23 -29 2 -29 13 0 20 7 20 20 0 23 1 23 -22 9z"/>
<path d="M10207 241 c-26 -30 -47 -40 -47 -23 0 5 -37 14 -82 20 -46 6 -100
14 -122 18 -45 8 -116 -12 -116 -33 0 -8 -6 -24 -14 -36 -8 -12 -17 -59 -21
-105 l-7 -82 621 0 621 0 0 40 c0 22 -4 40 -10 40 -5 0 -10 13 -10 29 0 47
-22 131 -35 131 -6 0 -32 -7 -58 -16 -33 -11 -47 -21 -49 -37 -4 -26 -38 -34
-168 -41 -101 -5 -165 -20 -182 -44 -7 -10 -28 -19 -46 -21 -19 -1 -43 -12
-55 -24 l-22 -22 -3 23 c-3 18 -10 22 -42 22 l-39 0 -3 78 -3 77 -37 3 c-23 2
-38 9 -40 19 -2 11 -10 7 -31 -16z"/>
<path d="M4380 221 c0 -12 5 -21 10 -21 6 0 10 6 10 14 0 8 -4 18 -10 21 -5 3
-10 -3 -10 -14z"/>
</g>
</svg>
